<mxfile host="app.diagrams.net" agent="Mozilla/5.0 (Windows NT 10.0; Win64; x64) AppleWebKit/537.36 (KHTML, like Gecko) Chrome/130.0.0.0 Safari/537.36" version="24.8.0">
  <diagram name="Page-1" id="PCEn51pgmij9FsJM4tTB">
    <mxGraphModel dx="26650" dy="13700" grid="1" gridSize="10" guides="1" tooltips="1" connect="1" arrows="1" fold="1" page="1" pageScale="1" pageWidth="850" pageHeight="1100" math="0" shadow="0">
      <root>
        <mxCell id="0" />
        <mxCell id="1" parent="0" />
        <UserObject label="" plantUmlData="{&#xa;  &quot;data&quot;: &quot;@startuml\n\nactor User as user\n\nrectangle \&quot;Blockchain-Based Data Sharing Platform\&quot; as platform {\n    rectangle \&quot;Frontend (React)\&quot; as frontend\n    rectangle \&quot;Backend\&quot; as backend\n    rectangle \&quot;Message Queue\&quot; as messagequeue\n    rectangle \&quot;IPFS Storage\&quot; as ipfs\n    rectangle \&quot;Libp2p Network\&quot; as libp2p\n}\n\nuser --&gt; frontend : Upload/Request Data\nfrontend --&gt; backend : Data/Hash\nbackend --&gt; ipfs : Upload Data\nbackend --&gt; libp2p : Share Data Hash\nlibp2p --&gt; backend : Receive Data Hash\nbackend --&gt; messagequeue : Store Hash Temporarily\nmessagequeue --&gt; backend : Retrieve Hash\nbackend --&gt; frontend : Send Hash to User\nfrontend --&gt; user : Download Data\n\n@enduml\n&quot;,&#xa;  &quot;format&quot;: &quot;svg&quot;&#xa;}" id="YPq_3mBggtz7-B7VUp4G-1">
          <mxCell style="shape=image;noLabel=1;verticalAlign=top;aspect=fixed;imageAspect=0;image=data:image/svg+xml,PD94bWwgdmVyc2lvbj0iMS4wIiBlbmNvZGluZz0idXMtYXNjaWkiIHN0YW5kYWxvbmU9Im5vIj8+PHN2ZyB4bWxucz0iaHR0cDovL3d3dy53My5vcmcvMjAwMC9zdmciIHhtbG5zOnhsaW5rPSJodHRwOi8vd3d3LnczLm9yZy8xOTk5L3hsaW5rIiBjb250ZW50U3R5bGVUeXBlPSJ0ZXh0L2NzcyIgaGVpZ2h0PSI0NTFweCIgcHJlc2VydmVBc3BlY3RSYXRpbz0ibm9uZSIgc3R5bGU9IndpZHRoOjc4NHB4O2hlaWdodDo0NTFweDtiYWNrZ3JvdW5kOiNGRkZGRkY7IiB2ZXJzaW9uPSIxLjEiIHZpZXdCb3g9IjAgMCA3ODQgNDUxIiB3aWR0aD0iNzg0cHgiIHpvb21BbmRQYW49Im1hZ25pZnkiPjxkZWZzLz48Zz48IS0tY2x1c3RlciBwbGF0Zm9ybS0tPjxnIGlkPSJjbHVzdGVyX3BsYXRmb3JtIj48cmVjdCBmaWxsPSJub25lIiBoZWlnaHQ9IjMwNCIgcng9IjIuNSIgcnk9IjIuNSIgc3R5bGU9InN0cm9rZTojMTgxODE4O3N0cm9rZS13aWR0aDoxLjA7IiB3aWR0aD0iNzcxIiB4PSI3IiB5PSIxNDEuNSIvPjx0ZXh0IGZpbGw9IiMwMDAwMDAiIGZvbnQtZmFtaWx5PSJzYW5zLXNlcmlmIiBmb250LXNpemU9IjE0IiBmb250LXdlaWdodD0iYm9sZCIgbGVuZ3RoQWRqdXN0PSJzcGFjaW5nIiB0ZXh0TGVuZ3RoPSIyNjciIHg9IjI1OSIgeT0iMTU2LjczNDQiPkJsb2NrY2hhaW4tQmFzZWQgRGF0YSBTaGFyaW5nIFBsYXRmb3JtPC90ZXh0PjwvZz48IS0tZW50aXR5IGZyb250ZW5kLS0+PGcgaWQ9ImVsZW1fZnJvbnRlbmQiPjxyZWN0IGZpbGw9IiNGMUYxRjEiIGhlaWdodD0iMzQuOTg0NCIgcng9IjIuNSIgcnk9IjIuNSIgc3R5bGU9InN0cm9rZTojMTgxODE4O3N0cm9rZS13aWR0aDowLjU7IiB3aWR0aD0iMTM0IiB4PSIyOTkiIHk9IjE3NC41Ii8+PHRleHQgZmlsbD0iIzAwMDAwMCIgZm9udC1mYW1pbHk9InNhbnMtc2VyaWYiIGZvbnQtc2l6ZT0iMTQiIGxlbmd0aEFkanVzdD0ic3BhY2luZyIgdGV4dExlbmd0aD0iMTE0IiB4PSIzMDkiIHk9IjE5Ny43MzQ0Ij5Gcm9udGVuZCAoUmVhY3QpPC90ZXh0PjwvZz48IS0tZW50aXR5IGJhY2tlbmQtLT48ZyBpZD0iZWxlbV9iYWNrZW5kIj48cmVjdCBmaWxsPSIjRjFGMUYxIiBoZWlnaHQ9IjM0Ljk4NDQiIHJ4PSIyLjUiIHJ5PSIyLjUiIHN0eWxlPSJzdHJva2U6IzE4MTgxODtzdHJva2Utd2lkdGg6MC41OyIgd2lkdGg9IjY5IiB4PSIzMzEuNSIgeT0iMjg0LjUiLz48dGV4dCBmaWxsPSIjMDAwMDAwIiBmb250LWZhbWlseT0ic2Fucy1zZXJpZiIgZm9udC1zaXplPSIxNCIgbGVuZ3RoQWRqdXN0PSJzcGFjaW5nIiB0ZXh0TGVuZ3RoPSI0OSIgeD0iMzQxLjUiIHk9IjMwNy43MzQ0Ij5CYWNrZW5kPC90ZXh0PjwvZz48IS0tZW50aXR5IG1lc3NhZ2VxdWV1ZS0tPjxnIGlkPSJlbGVtX21lc3NhZ2VxdWV1ZSI+PHJlY3QgZmlsbD0iI0YxRjFGMSIgaGVpZ2h0PSIzNC45ODQ0IiByeD0iMi41IiByeT0iMi41IiBzdHlsZT0ic3Ryb2tlOiMxODE4MTg7c3Ryb2tlLXdpZHRoOjAuNTsiIHdpZHRoPSIxMTEiIHg9IjI2OC41IiB5PSIzOTQuNSIvPjx0ZXh0IGZpbGw9IiMwMDAwMDAiIGZvbnQtZmFtaWx5PSJzYW5zLXNlcmlmIiBmb250LXNpemU9IjE0IiBsZW5ndGhBZGp1c3Q9InNwYWNpbmciIHRleHRMZW5ndGg9IjkxIiB4PSIyNzguNSIgeT0iNDE3LjczNDQiPk1lc3NhZ2UgUXVldWU8L3RleHQ+PC9nPjwhLS1lbnRpdHkgaXBmcy0tPjxnIGlkPSJlbGVtX2lwZnMiPjxyZWN0IGZpbGw9IiNGMUYxRjEiIGhlaWdodD0iMzQuOTg0NCIgcng9IjIuNSIgcnk9IjIuNSIgc3R5bGU9InN0cm9rZTojMTgxODE4O3N0cm9rZS13aWR0aDowLjU7IiB3aWR0aD0iMTA0IiB4PSIyMyIgeT0iMzk0LjUiLz48dGV4dCBmaWxsPSIjMDAwMDAwIiBmb250LWZhbWlseT0ic2Fucy1zZXJpZiIgZm9udC1zaXplPSIxNCIgbGVuZ3RoQWRqdXN0PSJzcGFjaW5nIiB0ZXh0TGVuZ3RoPSI4NCIgeD0iMzMiIHk9IjQxNy43MzQ0Ij5JUEZTIFN0b3JhZ2U8L3RleHQ+PC9nPjwhLS1lbnRpdHkgbGlicDJwLS0+PGcgaWQ9ImVsZW1fbGlicDJwIj48cmVjdCBmaWxsPSIjRjFGMUYxIiBoZWlnaHQ9IjM0Ljk4NDQiIHJ4PSIyLjUiIHJ5PSIyLjUiIHN0eWxlPSJzdHJva2U6IzE4MTgxODtzdHJva2Utd2lkdGg6MC41OyIgd2lkdGg9IjExOSIgeD0iNDc4LjUiIHk9IjM5NC41Ii8+PHRleHQgZmlsbD0iIzAwMDAwMCIgZm9udC1mYW1pbHk9InNhbnMtc2VyaWYiIGZvbnQtc2l6ZT0iMTQiIGxlbmd0aEFkanVzdD0ic3BhY2luZyIgdGV4dExlbmd0aD0iOTkiIHg9IjQ4OC41IiB5PSI0MTcuNzM0NCI+TGlicDJwIE5ldHdvcms8L3RleHQ+PC9nPjwhLS1lbnRpdHkgdXNlci0tPjxnIGlkPSJlbGVtX3VzZXIiPjxlbGxpcHNlIGN4PSIzNjYiIGN5PSIxNCIgZmlsbD0iI0YxRjFGMSIgcng9IjgiIHJ5PSI4IiBzdHlsZT0ic3Ryb2tlOiMxODE4MTg7c3Ryb2tlLXdpZHRoOjAuNTsiLz48cGF0aCBkPSJNMzY2LDIyIEwzNjYsNDkgTTM1MywzMCBMMzc5LDMwIE0zNjYsNDkgTDM1Myw2NCBNMzY2LDQ5IEwzNzksNjQgIiBmaWxsPSJub25lIiBzdHlsZT0ic3Ryb2tlOiMxODE4MTg7c3Ryb2tlLXdpZHRoOjAuNTsiLz48dGV4dCBmaWxsPSIjMDAwMDAwIiBmb250LWZhbWlseT0ic2Fucy1zZXJpZiIgZm9udC1zaXplPSIxNCIgbGVuZ3RoQWRqdXN0PSJzcGFjaW5nIiB0ZXh0TGVuZ3RoPSIyOCIgeD0iMzUyIiB5PSI3OC43MzQ0Ij5Vc2VyPC90ZXh0PjwvZz48IS0tbGluayB1c2VyIHRvIGZyb250ZW5kLS0+PGcgaWQ9ImxpbmtfdXNlcl9mcm9udGVuZCI+PHBhdGggZD0iTTM1MS45Myw0OC43OSBDMzIyLjQsNTkuNjggMjU4LjE5LDg4LjI5IDI3NywxMjUuNSBDMjg3Ljk5LDE0Ny4yNCAzMDQuNzUxMSwxNjAuNTg3NSAzMjQuMTIxMSwxNzEuNDg3NSAiIGZpbGw9Im5vbmUiIGlkPSJ1c2VyLXRvLWZyb250ZW5kIiBzdHlsZT0ic3Ryb2tlOiMxODE4MTg7c3Ryb2tlLXdpZHRoOjEuMDsiLz48cG9seWdvbiBmaWxsPSIjMTgxODE4IiBwb2ludHM9IjMyOS4zNSwxNzQuNDMsMzIzLjQ2ODIsMTY2LjUzMDMsMzI0Ljk5MjUsMTcxLjk3NzksMzE5LjU0NDksMTczLjUwMjMsMzI5LjM1LDE3NC40MyIgc3R5bGU9InN0cm9rZTojMTgxODE4O3N0cm9rZS13aWR0aDoxLjA7Ii8+PHRleHQgZmlsbD0iIzAwMDAwMCIgZm9udC1mYW1pbHk9InNhbnMtc2VyaWYiIGZvbnQtc2l6ZT0iMTMiIGxlbmd0aEFkanVzdD0ic3BhY2luZyIgdGV4dExlbmd0aD0iMTMwIiB4PSIyNzgiIHk9IjEyMy43ODkxIj5VcGxvYWQvUmVxdWVzdCBEYXRhPC90ZXh0PjwvZz48IS0tbGluayBmcm9udGVuZCB0byB1c2VyLS0+PGcgaWQ9ImxpbmtfZnJvbnRlbmRfdXNlciI+PHBhdGggZD0iTTM4Mi41MSwxNzQuMzMgQzM5My41MSwxNjEuOTkgNDA3LDE0NC4xNSA0MTMsMTI1LjUgQzQyMS43LDk4LjQ0IDQwMS4zMTk4LDc0LjUzMzggMzg0LjUxOTgsNTkuNDEzOCAiIGZpbGw9Im5vbmUiIGlkPSJmcm9udGVuZC10by11c2VyIiBzdHlsZT0ic3Ryb2tlOiMxODE4MTg7c3Ryb2tlLXdpZHRoOjEuMDsiLz48cG9seWdvbiBmaWxsPSIjMTgxODE4IiBwb2ludHM9IjM4MC4wNiw1NS40LDM4NC4wNzM4LDY0LjM5MzksMzgzLjc3NjUsNTguNzQ0OCwzODkuNDI1NSw1OC40NDc1LDM4MC4wNiw1NS40IiBzdHlsZT0ic3Ryb2tlOiMxODE4MTg7c3Ryb2tlLXdpZHRoOjEuMDsiLz48dGV4dCBmaWxsPSIjMDAwMDAwIiBmb250LWZhbWlseT0ic2Fucy1zZXJpZiIgZm9udC1zaXplPSIxMyIgbGVuZ3RoQWRqdXN0PSJzcGFjaW5nIiB0ZXh0TGVuZ3RoPSI4OCIgeD0iNDE1IiB5PSIxMjMuNzg5MSI+RG93bmxvYWQgRGF0YTwvdGV4dD48L2c+PCEtLWxpbmsgZnJvbnRlbmQgdG8gYmFja2VuZC0tPjxnIGlkPSJsaW5rX2Zyb250ZW5kX2JhY2tlbmQiPjxwYXRoIGQ9Ik0zMzcuNTIsMjA5LjU5IEMzMjcuMTYsMjE3LjI1IDMxNi42MywyMjcuMzYgMzExLDIzOS41IEMzMDIuOTIsMjU2LjkxIDMxMy40MTgxLDI2OS41NTIgMzI5Ljk3ODEsMjgwLjg4MiAiIGZpbGw9Im5vbmUiIGlkPSJmcm9udGVuZC10by1iYWNrZW5kIiBzdHlsZT0ic3Ryb2tlOiMxODE4MTg7c3Ryb2tlLXdpZHRoOjEuMDsiLz48cG9seWdvbiBmaWxsPSIjMTgxODE4IiBwb2ludHM9IjMzNC45MywyODQuMjcsMzI5Ljc2MDgsMjc1Ljg4NjcsMzMwLjgwMzQsMjgxLjQ0NjcsMzI1LjI0MzUsMjgyLjQ4OTMsMzM0LjkzLDI4NC4yNyIgc3R5bGU9InN0cm9rZTojMTgxODE4O3N0cm9rZS13aWR0aDoxLjA7Ii8+PHRleHQgZmlsbD0iIzAwMDAwMCIgZm9udC1mYW1pbHk9InNhbnMtc2VyaWYiIGZvbnQtc2l6ZT0iMTMiIGxlbmd0aEFkanVzdD0ic3BhY2luZyIgdGV4dExlbmd0aD0iNjIiIHg9IjMxMiIgeT0iMjUyLjc4OTEiPkRhdGEvSGFzaDwvdGV4dD48L2c+PCEtLWxpbmsgYmFja2VuZCB0byBmcm9udGVuZC0tPjxnIGlkPSJsaW5rX2JhY2tlbmRfZnJvbnRlbmQiPjxwYXRoIGQ9Ik0zNzEuODEsMjg0LjQ0IEMzNzQuNTksMjc1LjY3IDM3Ny42MSwyNjQuNjMgMzc5LDI1NC41IEMzODEuMTEsMjM5LjE1IDM3OC44MTMzLDIyNy41OCAzNzQuNjIzMywyMTUuMjcgIiBmaWxsPSJub25lIiBpZD0iYmFja2VuZC10by1mcm9udGVuZCIgc3R5bGU9InN0cm9rZTojMTgxODE4O3N0cm9rZS13aWR0aDoxLjA7Ii8+PHBvbHlnb24gZmlsbD0iIzE4MTgxOCIgcG9pbnRzPSIzNzIuNjksMjA5LjU5LDM3MS44MDMzLDIxOS4zOTg5LDM3NC4zMDExLDIxNC4zMjMzLDM3OS4zNzY2LDIxNi44MjExLDM3Mi42OSwyMDkuNTkiIHN0eWxlPSJzdHJva2U6IzE4MTgxODtzdHJva2Utd2lkdGg6MS4wOyIvPjx0ZXh0IGZpbGw9IiMwMDAwMDAiIGZvbnQtZmFtaWx5PSJzYW5zLXNlcmlmIiBmb250LXNpemU9IjEzIiBsZW5ndGhBZGp1c3Q9InNwYWNpbmciIHRleHRMZW5ndGg9IjExOCIgeD0iMzgwIiB5PSIyNTIuNzg5MSI+U2VuZCBIYXNoIHRvIFVzZXI8L3RleHQ+PC9nPjwhLS1saW5rIGJhY2tlbmQgdG8gaXBmcy0tPjxnIGlkPSJsaW5rX2JhY2tlbmRfaXBmcyI+PHBhdGggZD0iTTMzMS40OCwzMDMuNSBDMjYyLjk0LDMwNS4yOCAxMTMuMzksMzEzLjMyIDgwLDM0OS41IEM2OS4wMywzNjEuMzkgNjguMzgyNiwzNzQuNzE0NSA3MC40MjI2LDM4OC41MTQ1ICIgZmlsbD0ibm9uZSIgaWQ9ImJhY2tlbmQtdG8taXBmcyIgc3R5bGU9InN0cm9rZTojMTgxODE4O3N0cm9rZS13aWR0aDoxLjA7Ii8+PHBvbHlnb24gZmlsbD0iIzE4MTgxOCIgcG9pbnRzPSI3MS4zLDM5NC40NSw3My45NDA5LDM4NC45NjE4LDcwLjU2ODgsMzg5LjUwMzgsNjYuMDI2OSwzODYuMTMxNyw3MS4zLDM5NC40NSIgc3R5bGU9InN0cm9rZTojMTgxODE4O3N0cm9rZS13aWR0aDoxLjA7Ii8+PHRleHQgZmlsbD0iIzAwMDAwMCIgZm9udC1mYW1pbHk9InNhbnMtc2VyaWYiIGZvbnQtc2l6ZT0iMTMiIGxlbmd0aEFkanVzdD0ic3BhY2luZyIgdGV4dExlbmd0aD0iNzUiIHg9IjgxIiB5PSIzNjIuNzg5MSI+VXBsb2FkIERhdGE8L3RleHQ+PC9nPjwhLS1saW5rIGJhY2tlbmQgdG8gbGlicDJwLS0+PGcgaWQ9ImxpbmtfYmFja2VuZF9saWJwMnAiPjxwYXRoIGQ9Ik0zOTUuNTIsMzE5LjU3IEM0MTAuNzMsMzI4LjI2IDQyOS41MSwzMzkuMjEgNDQ2LDM0OS41IEM0NjkuNDcsMzY0LjE1IDQ5MC43MDI0LDM3OC4zNzU3IDUwOS4xMTI0LDM5MS4wMDU3ICIgZmlsbD0ibm9uZSIgaWQ9ImJhY2tlbmQtdG8tbGlicDJwIiBzdHlsZT0ic3Ryb2tlOiMxODE4MTg7c3Ryb2tlLXdpZHRoOjEuMDsiLz48cG9seWdvbiBmaWxsPSIjMTgxODE4IiBwb2ludHM9IjUxNC4wNiwzOTQuNCw1MDguOTAxNCwzODYuMDEwMiw1MDkuOTM3LDM5MS41NzE0LDUwNC4zNzU3LDM5Mi42MDcsNTE0LjA2LDM5NC40IiBzdHlsZT0ic3Ryb2tlOiMxODE4MTg7c3Ryb2tlLXdpZHRoOjEuMDsiLz48dGV4dCBmaWxsPSIjMDAwMDAwIiBmb250LWZhbWlseT0ic2Fucy1zZXJpZiIgZm9udC1zaXplPSIxMyIgbGVuZ3RoQWRqdXN0PSJzcGFjaW5nIiB0ZXh0TGVuZ3RoPSIxMDQiIHg9IjQ3MCIgeT0iMzYyLjc4OTEiPlNoYXJlIERhdGEgSGFzaDwvdGV4dD48L2c+PCEtLWxpbmsgbGlicDJwIHRvIGJhY2tlbmQtLT48ZyBpZD0ibGlua19saWJwMnBfYmFja2VuZCI+PHBhdGggZD0iTTU2My4xOCwzOTQuNDkgQzU3OS4yNCwzODEuOTIgNTk0Ljk4LDM2NC4zMiA1ODMsMzQ5LjUgQzU2MC40NywzMjEuNjMgNDYyLjExMDksMzEwLjE4ODQgNDA2LjczMDksMzA1Ljc1ODQgIiBmaWxsPSJub25lIiBpZD0ibGlicDJwLXRvLWJhY2tlbmQiIHN0eWxlPSJzdHJva2U6IzE4MTgxODtzdHJva2Utd2lkdGg6MS4wOyIvPjxwb2x5Z29uIGZpbGw9IiMxODE4MTgiIHBvaW50cz0iNDAwLjc1LDMwNS4yOCw0MDkuNDAyNCwzMDkuOTg0OSw0MDUuNzM0MSwzMDUuNjc4Nyw0MTAuMDQwMywzMDIuMDEwNCw0MDAuNzUsMzA1LjI4IiBzdHlsZT0ic3Ryb2tlOiMxODE4MTg7c3Ryb2tlLXdpZHRoOjEuMDsiLz48dGV4dCBmaWxsPSIjMDAwMDAwIiBmb250LWZhbWlseT0ic2Fucy1zZXJpZiIgZm9udC1zaXplPSIxMyIgbGVuZ3RoQWRqdXN0PSJzcGFjaW5nIiB0ZXh0TGVuZ3RoPSIxMTciIHg9IjU4OCIgeT0iMzYyLjc4OTEiPlJlY2VpdmUgRGF0YSBIYXNoPC90ZXh0PjwvZz48IS0tbGluayBiYWNrZW5kIHRvIG1lc3NhZ2VxdWV1ZS0tPjxnIGlkPSJsaW5rX2JhY2tlbmRfbWVzc2FnZXF1ZXVlIj48cGF0aCBkPSJNMzMxLjIyLDMwNi4yNSBDMjgwLjg0LDMxMS43NiAxOTEuNDYsMzI0LjgyIDE3MiwzNDkuNSBDMTQzLjA5LDM4Ni4xNiAyMDcuNjM2LDQwMC40MzM1IDI2Mi4wNTYsNDA2LjQyMzUgIiBmaWxsPSJub25lIiBpZD0iYmFja2VuZC10by1tZXNzYWdlcXVldWUiIHN0eWxlPSJzdHJva2U6IzE4MTgxODtzdHJva2Utd2lkdGg6MS4wOyIvPjxwb2x5Z29uIGZpbGw9IiMxODE4MTgiIHBvaW50cz0iMjY4LjAyLDQwNy4wOCwyNTkuNTExNyw0MDIuMTE5MywyNjMuMDUsNDA2LjUzMywyNTguNjM2NCw0MTAuMDcxMywyNjguMDIsNDA3LjA4IiBzdHlsZT0ic3Ryb2tlOiMxODE4MTg7c3Ryb2tlLXdpZHRoOjEuMDsiLz48dGV4dCBmaWxsPSIjMDAwMDAwIiBmb250LWZhbWlseT0ic2Fucy1zZXJpZiIgZm9udC1zaXplPSIxMyIgbGVuZ3RoQWRqdXN0PSJzcGFjaW5nIiB0ZXh0TGVuZ3RoPSIxNDkiIHg9IjE3MyIgeT0iMzYyLjc4OTEiPlN0b3JlIEhhc2ggVGVtcG9yYXJpbHk8L3RleHQ+PC9nPjwhLS1saW5rIG1lc3NhZ2VxdWV1ZSB0byBiYWNrZW5kLS0+PGcgaWQ9ImxpbmtfbWVzc2FnZXF1ZXVlX2JhY2tlbmQiPjxwYXRoIGQ9Ik0zMzAuNTIsMzk0LjI0IEMzMzguMzksMzc0LjAxIDM0OS4zNzQ1LDM0NS43NTE3IDM1Ny4yNjQ1LDMyNS40NzE3ICIgZmlsbD0ibm9uZSIgaWQ9Im1lc3NhZ2VxdWV1ZS10by1iYWNrZW5kIiBzdHlsZT0ic3Ryb2tlOiMxODE4MTg7c3Ryb2tlLXdpZHRoOjEuMDsiLz48cG9seWdvbiBmaWxsPSIjMTgxODE4IiBwb2ludHM9IjM1OS40NCwzMTkuODgsMzUyLjQ0OSwzMjYuODE3MywzNTcuNjI3MSwzMjQuNTM5OCwzNTkuOTA0NiwzMjkuNzE3OSwzNTkuNDQsMzE5Ljg4IiBzdHlsZT0ic3Ryb2tlOiMxODE4MTg7c3Ryb2tlLXdpZHRoOjEuMDsiLz48dGV4dCBmaWxsPSIjMDAwMDAwIiBmb250LWZhbWlseT0ic2Fucy1zZXJpZiIgZm9udC1zaXplPSIxMyIgbGVuZ3RoQWRqdXN0PSJzcGFjaW5nIiB0ZXh0TGVuZ3RoPSI4OSIgeD0iMzQ4IiB5PSIzNjIuNzg5MSI+UmV0cmlldmUgSGFzaDwvdGV4dD48L2c+PCEtLVNSQz1bUFBCMUplR200OFJsVk9oOWRsSDBEbDdlbUdDbjZxdEtoRTAtbTZtUGVBN0dzZlJUNkVFeHNuT2ExTmpmLVVWaEZ6Q184N1ZBbUNjSTBSR20tZnFuR3pwWHE0WTJOSXVMeHRZQk9pWG9qNUoxOHBnNGlhS1pYV1FFNGJzakpCeUJUX055MFR5Q180ZkMzYU9EWmVPQVJXZjJ4Y3VaTmlfWTVpd0hUcndFcDdhd1J2NU5pWE9SV2xVSEhlZldGb2NWR1RaSXB5VDMyUUxfZkdTWUI3SGpqejJCRUVpeDNNX2FoaWZxNFBESE9aLUNYTEdXb253TWNVNFVKYmVnaEZQNXc2YlRaOEtqdlMzRWl0aXFyRlBGUTVsc2Z1THdjNkJuY1V3ZHZRY3gxcUJNRENLVUZVUjJrYUwxZENHYm5MQWxEOXRXd0JFV0lDNDd6VGU3T3VKeU9ZamdRLSAtQ2UwbHpqcXVJQVNDTU5Qc0FGekd3Wm5ZWTNxRFRYLU41bG0wMF0tLT48L2c+PC9zdmc+;" vertex="1" parent="1">
            <mxGeometry x="460" y="350" width="784" height="451" as="geometry" />
          </mxCell>
        </UserObject>
        <UserObject label="" plantUmlData="{&#xa;  &quot;data&quot;: &quot;@startuml\n\nactor User as user\n\nrectangle \&quot;Blockchain-Based Data Sharing Platform\&quot; as platform {\n\n    rectangle \&quot;Frontend (React)\&quot; as frontend {\n        usecase \&quot;1.1 Upload Data\&quot; as upload_data\n        usecase \&quot;1.2 Request Data\&quot; as request_data\n    }\n\n    rectangle \&quot;Backend\&quot; as backend {\n        usecase \&quot;2.1 Handle Data Upload\&quot; as handle_upload\n        usecase \&quot;2.2 Handle Data Request\&quot; as handle_request\n        usecase \&quot;2.3 Manage Message Queue\&quot; as manage_queue\n        usecase \&quot;2.4 Interact with IPFS\&quot; as interact_ipfs\n        usecase \&quot;2.5 Communicate via libp2p\&quot; as interact_libp2p\n    }\n\n    rectangle \&quot;Message Queue\&quot; as messagequeue {\n        usecase \&quot;3.1 Store Hash Temporarily\&quot; as store_hash\n        usecase \&quot;3.2 Check for Receiver Online\&quot; as check_online\n        usecase \&quot;3.3 Retrieve Hash\&quot; as retrieve_hash\n    }\n\n    rectangle \&quot;IPFS Storage\&quot; as ipfs {\n        usecase \&quot;4.1 Upload to IPFS\&quot; as upload_ipfs\n        usecase \&quot;4.2 Retrieve from IPFS\&quot; as retrieve_ipfs\n    }\n\n    rectangle \&quot;Libp2p Network\&quot; as libp2p {\n        usecase \&quot;5.1 Send Hash to Receiver\&quot; as send_hash\n        usecase \&quot;5.2 Receive Hash from Sender\&quot; as receive_hash\n    }\n}\n\nuser --&gt; upload_data : Upload Data\nuser --&gt; request_data : Request Data\nupload_data --&gt; handle_upload : Process Upload\nrequest_data --&gt; handle_request : Process Request\n\nhandle_upload --&gt; interact_ipfs : Upload Data to IPFS\ninteract_ipfs --&gt; upload_ipfs : Store Data in IPFS\nhandle_upload --&gt; interact_libp2p : Send Hash via libp2p\ninteract_libp2p --&gt; send_hash : Share Hash with Receiver\n\nhandle_request --&gt; interact_libp2p : Fetch Hash via libp2p\ninteract_libp2p --&gt; receive_hash : Receive Hash\nhandle_request --&gt; interact_ipfs : Retrieve Data from IPFS\ninteract_ipfs --&gt; retrieve_ipfs : Fetch Data from IPFS\n\nhandle_upload --&gt; manage_queue : Store Hash if Receiver is Offline\nmanage_queue --&gt; store_hash : Temporarily Store Hash\nmanage_queue --&gt; check_online : Check if Receiver is Online\nmanage_queue --&gt; retrieve_hash : Retrieve Hash if Receiver is Online\n\n@enduml\n&quot;,&#xa;  &quot;format&quot;: &quot;svg&quot;&#xa;}" id="YPq_3mBggtz7-B7VUp4G-2">
          <mxCell style="shape=image;noLabel=1;verticalAlign=top;aspect=fixed;imageAspect=0;image=data:image/svg+xml,PD94bWwgdmVyc2lvbj0iMS4wIiBlbmNvZGluZz0idXMtYXNjaWkiIHN0YW5kYWxvbmU9Im5vIj8+PHN2ZyB4bWxucz0iaHR0cDovL3d3dy53My5vcmcvMjAwMC9zdmciIHhtbG5zOnhsaW5rPSJodHRwOi8vd3d3LnczLm9yZy8xOTk5L3hsaW5rIiBjb250ZW50U3R5bGVUeXBlPSJ0ZXh0L2NzcyIgaGVpZ2h0PSI3MDdweCIgcHJlc2VydmVBc3BlY3RSYXRpbz0ibm9uZSIgc3R5bGU9IndpZHRoOjE3NDFweDtoZWlnaHQ6NzA3cHg7YmFja2dyb3VuZDojRkZGRkZGOyIgdmVyc2lvbj0iMS4xIiB2aWV3Qm94PSIwIDAgMTc0MSA3MDciIHdpZHRoPSIxNzQxcHgiIHpvb21BbmRQYW49Im1hZ25pZnkiPjxkZWZzLz48Zz48IS0tY2x1c3RlciBwbGF0Zm9ybS0tPjxnIGlkPSJjbHVzdGVyX3BsYXRmb3JtIj48cmVjdCBmaWxsPSJub25lIiBoZWlnaHQ9IjU2MCIgcng9IjIuNSIgcnk9IjIuNSIgc3R5bGU9InN0cm9rZTojMTgxODE4O3N0cm9rZS13aWR0aDoxLjA7IiB3aWR0aD0iMTcyOCIgeD0iNyIgeT0iMTQxLjUiLz48dGV4dCBmaWxsPSIjMDAwMDAwIiBmb250LWZhbWlseT0ic2Fucy1zZXJpZiIgZm9udC1zaXplPSIxNCIgZm9udC13ZWlnaHQ9ImJvbGQiIGxlbmd0aEFkanVzdD0ic3BhY2luZyIgdGV4dExlbmd0aD0iMjY3IiB4PSI3MzcuNSIgeT0iMTU2LjczNDQiPkJsb2NrY2hhaW4tQmFzZWQgRGF0YSBTaGFyaW5nIFBsYXRmb3JtPC90ZXh0PjwvZz48IS0tY2x1c3RlciBmcm9udGVuZC0tPjxnIGlkPSJjbHVzdGVyX2Zyb250ZW5kIj48cmVjdCBmaWxsPSJub25lIiBoZWlnaHQ9Ijg0IiByeD0iMi41IiByeT0iMi41IiBzdHlsZT0ic3Ryb2tlOiMxODE4MTg7c3Ryb2tlLXdpZHRoOjEuMDsiIHdpZHRoPSIzNjQiIHg9IjgzOCIgeT0iMTgyLjUiLz48dGV4dCBmaWxsPSIjMDAwMDAwIiBmb250LWZhbWlseT0ic2Fucy1zZXJpZiIgZm9udC1zaXplPSIxNCIgZm9udC13ZWlnaHQ9ImJvbGQiIGxlbmd0aEFkanVzdD0ic3BhY2luZyIgdGV4dExlbmd0aD0iMTE0IiB4PSI5NjMiIHk9IjE5Ny43MzQ0Ij5Gcm9udGVuZCAoUmVhY3QpPC90ZXh0PjwvZz48IS0tY2x1c3RlciBiYWNrZW5kLS0+PGcgaWQ9ImNsdXN0ZXJfYmFja2VuZCI+PHJlY3QgZmlsbD0ibm9uZSIgaGVpZ2h0PSIyMTYiIHJ4PSIyLjUiIHJ5PSIyLjUiIHN0eWxlPSJzdHJva2U6IzE4MTgxODtzdHJva2Utd2lkdGg6MS4wOyIgd2lkdGg9IjEwMjMiIHg9IjQ2NiIgeT0iMzEzLjUiLz48dGV4dCBmaWxsPSIjMDAwMDAwIiBmb250LWZhbWlseT0ic2Fucy1zZXJpZiIgZm9udC1zaXplPSIxNCIgZm9udC13ZWlnaHQ9ImJvbGQiIGxlbmd0aEFkanVzdD0ic3BhY2luZyIgdGV4dExlbmd0aD0iNDkiIHg9Ijk1MyIgeT0iMzI4LjczNDQiPkJhY2tlbmQ8L3RleHQ+PC9nPjwhLS1jbHVzdGVyIG1lc3NhZ2VxdWV1ZS0tPjxnIGlkPSJjbHVzdGVyX21lc3NhZ2VxdWV1ZSI+PHJlY3QgZmlsbD0ibm9uZSIgaGVpZ2h0PSIxMDEiIHJ4PSIyLjUiIHJ5PSIyLjUiIHN0eWxlPSJzdHJva2U6IzE4MTgxODtzdHJva2Utd2lkdGg6MS4wOyIgd2lkdGg9IjcwOSIgeD0iMzEiIHk9IjU3Ni41Ii8+PHRleHQgZmlsbD0iIzAwMDAwMCIgZm9udC1mYW1pbHk9InNhbnMtc2VyaWYiIGZvbnQtc2l6ZT0iMTQiIGZvbnQtd2VpZ2h0PSJib2xkIiBsZW5ndGhBZGp1c3Q9InNwYWNpbmciIHRleHRMZW5ndGg9IjkxIiB4PSIzNDAiIHk9IjU5MS43MzQ0Ij5NZXNzYWdlIFF1ZXVlPC90ZXh0PjwvZz48IS0tY2x1c3RlciBpcGZzLS0+PGcgaWQ9ImNsdXN0ZXJfaXBmcyI+PHJlY3QgZmlsbD0ibm9uZSIgaGVpZ2h0PSI5MiIgcng9IjIuNSIgcnk9IjIuNSIgc3R5bGU9InN0cm9rZTojMTgxODE4O3N0cm9rZS13aWR0aDoxLjA7IiB3aWR0aD0iNDIwIiB4PSI3NjQiIHk9IjU4MSIvPjx0ZXh0IGZpbGw9IiMwMDAwMDAiIGZvbnQtZmFtaWx5PSJzYW5zLXNlcmlmIiBmb250LXNpemU9IjE0IiBmb250LXdlaWdodD0iYm9sZCIgbGVuZ3RoQWRqdXN0PSJzcGFjaW5nIiB0ZXh0TGVuZ3RoPSI4NCIgeD0iOTMyIiB5PSI1OTYuMjM0NCI+SVBGUyBTdG9yYWdlPC90ZXh0PjwvZz48IS0tY2x1c3RlciBsaWJwMnAtLT48ZyBpZD0iY2x1c3Rlcl9saWJwMnAiPjxyZWN0IGZpbGw9Im5vbmUiIGhlaWdodD0iOTkiIHJ4PSIyLjUiIHJ5PSIyLjUiIHN0eWxlPSJzdHJva2U6IzE4MTgxODtzdHJva2Utd2lkdGg6MS4wOyIgd2lkdGg9IjUwMyIgeD0iMTIwOCIgeT0iNTc3LjUiLz48dGV4dCBmaWxsPSIjMDAwMDAwIiBmb250LWZhbWlseT0ic2Fucy1zZXJpZiIgZm9udC1zaXplPSIxNCIgZm9udC13ZWlnaHQ9ImJvbGQiIGxlbmd0aEFkanVzdD0ic3BhY2luZyIgdGV4dExlbmd0aD0iOTkiIHg9IjE0MTAiIHk9IjU5Mi43MzQ0Ij5MaWJwMnAgTmV0d29yazwvdGV4dD48L2c+PGcgaWQ9ImVsZW1fdXBsb2FkX2RhdGEiPjxlbGxpcHNlIGN4PSI5MjYuOTY2MyIgY3k9IjIzMi44OTMzIiBmaWxsPSIjRjFGMUYxIiByeD0iNzIuNDY2MyIgcnk9IjE2Ljg5MzMiIHN0eWxlPSJzdHJva2U6IzE4MTgxODtzdHJva2Utd2lkdGg6MC41OyIvPjx0ZXh0IGZpbGw9IiMwMDAwMDAiIGZvbnQtZmFtaWx5PSJzYW5zLXNlcmlmIiBmb250LXNpemU9IjE0IiBsZW5ndGhBZGp1c3Q9InNwYWNpbmciIHRleHRMZW5ndGg9IjEwNSIgeD0iODc0LjQ2NjMiIHk9IjIzNi42MzU1Ij4xLjEgVXBsb2FkIERhdGE8L3RleHQ+PC9nPjxnIGlkPSJlbGVtX3JlcXVlc3RfZGF0YSI+PGVsbGlwc2UgY3g9IjExMDkuOTM4NCIgY3k9IjIzMi45ODc3IiBmaWxsPSIjRjFGMUYxIiByeD0iNzUuNDM4NCIgcnk9IjE3LjQ4NzciIHN0eWxlPSJzdHJva2U6IzE4MTgxODtzdHJva2Utd2lkdGg6MC41OyIvPjx0ZXh0IGZpbGw9IiMwMDAwMDAiIGZvbnQtZmFtaWx5PSJzYW5zLXNlcmlmIiBmb250LXNpemU9IjE0IiBsZW5ndGhBZGp1c3Q9InNwYWNpbmciIHRleHRMZW5ndGg9IjExMiIgeD0iMTA1My45Mzg0IiB5PSIyMzYuNzI5OSI+MS4yIFJlcXVlc3QgRGF0YTwvdGV4dD48L2c+PGcgaWQ9ImVsZW1faGFuZGxlX3VwbG9hZCI+PGVsbGlwc2UgY3g9IjgyMy4wNjIyIiBjeT0iMzY4LjcxMjQiIGZpbGw9IiNGMUYxRjEiIHJ4PSI5NC4wNjIyIiByeT0iMjEuMjEyNCIgc3R5bGU9InN0cm9rZTojMTgxODE4O3N0cm9rZS13aWR0aDowLjU7Ii8+PHRleHQgZmlsbD0iIzAwMDAwMCIgZm9udC1mYW1pbHk9InNhbnMtc2VyaWYiIGZvbnQtc2l6ZT0iMTQiIGxlbmd0aEFkanVzdD0ic3BhY2luZyIgdGV4dExlbmd0aD0iMTU0IiB4PSI3NDYuMDYyMiIgeT0iMzcyLjQ1NDYiPjIuMSBIYW5kbGUgRGF0YSBVcGxvYWQ8L3RleHQ+PC9nPjxnIGlkPSJlbGVtX2hhbmRsZV9yZXF1ZXN0Ij48ZWxsaXBzZSBjeD0iMTEzMC43NjMzIiBjeT0iMzY4LjM1MjciIGZpbGw9IiNGMUYxRjEiIHJ4PSI5Ny4yNjMzIiByeT0iMjEuODUyNyIgc3R5bGU9InN0cm9rZTojMTgxODE4O3N0cm9rZS13aWR0aDowLjU7Ii8+PHRleHQgZmlsbD0iIzAwMDAwMCIgZm9udC1mYW1pbHk9InNhbnMtc2VyaWYiIGZvbnQtc2l6ZT0iMTQiIGxlbmd0aEFkanVzdD0ic3BhY2luZyIgdGV4dExlbmd0aD0iMTYxIiB4PSIxMDUwLjI2MzMiIHk9IjM3Mi4wOTQ4Ij4yLjIgSGFuZGxlIERhdGEgUmVxdWVzdDwvdGV4dD48L2c+PGcgaWQ9ImVsZW1fbWFuYWdlX3F1ZXVlIj48ZWxsaXBzZSBjeD0iNTgyLjk4NSIgY3k9IjQ4OS40OTciIGZpbGw9IiNGMUYxRjEiIHJ4PSIxMDAuNDg1IiByeT0iMjIuNDk3IiBzdHlsZT0ic3Ryb2tlOiMxODE4MTg7c3Ryb2tlLXdpZHRoOjAuNTsiLz48dGV4dCBmaWxsPSIjMDAwMDAwIiBmb250LWZhbWlseT0ic2Fucy1zZXJpZiIgZm9udC1zaXplPSIxNCIgbGVuZ3RoQWRqdXN0PSJzcGFjaW5nIiB0ZXh0TGVuZ3RoPSIxNjgiIHg9IjQ5OC45ODUiIHk9IjQ5My4yMzkyIj4yLjMgTWFuYWdlIE1lc3NhZ2UgUXVldWU8L3RleHQ+PC9nPjxnIGlkPSJlbGVtX2ludGVyYWN0X2lwZnMiPjxlbGxpcHNlIGN4PSI5NjguMDE4MiIgY3k9IjQ4OS4zMDM2IiBmaWxsPSIjRjFGMUYxIiByeD0iOTQuNTE4MiIgcnk9IjIxLjMwMzYiIHN0eWxlPSJzdHJva2U6IzE4MTgxODtzdHJva2Utd2lkdGg6MC41OyIvPjx0ZXh0IGZpbGw9IiMwMDAwMDAiIGZvbnQtZmFtaWx5PSJzYW5zLXNlcmlmIiBmb250LXNpemU9IjE0IiBsZW5ndGhBZGp1c3Q9InNwYWNpbmciIHRleHRMZW5ndGg9IjE1NSIgeD0iODkwLjUxODIiIHk9IjQ5My4wNDU4Ij4yLjQgSW50ZXJhY3Qgd2l0aCBJUEZTPC90ZXh0PjwvZz48ZyBpZD0iZWxlbV9pbnRlcmFjdF9saWJwMnAiPjxlbGxpcHNlIGN4PSIxMzI3LjkxNTgiIGN5PSI0ODkuNDgzMiIgZmlsbD0iI0YxRjFGMSIgcng9IjEwNy45MTU4IiByeT0iMjMuOTgzMiIgc3R5bGU9InN0cm9rZTojMTgxODE4O3N0cm9rZS13aWR0aDowLjU7Ii8+PHRleHQgZmlsbD0iIzAwMDAwMCIgZm9udC1mYW1pbHk9InNhbnMtc2VyaWYiIGZvbnQtc2l6ZT0iMTQiIGxlbmd0aEFkanVzdD0ic3BhY2luZyIgdGV4dExlbmd0aD0iMTg0IiB4PSIxMjM1LjkxNTgiIHk9IjQ5My4yMjUzIj4yLjUgQ29tbXVuaWNhdGUgdmlhIGxpYnAycDwvdGV4dD48L2c+PGcgaWQ9ImVsZW1fc3RvcmVfaGFzaCI+PGVsbGlwc2UgY3g9IjM0Ni45NDg5IiBjeT0iNjM1LjM4OTgiIGZpbGw9IiNGMUYxRjEiIHJ4PSIxMDcuNDQ4OSIgcnk9IjIzLjg4OTgiIHN0eWxlPSJzdHJva2U6IzE4MTgxODtzdHJva2Utd2lkdGg6MC41OyIvPjx0ZXh0IGZpbGw9IiMwMDAwMDAiIGZvbnQtZmFtaWx5PSJzYW5zLXNlcmlmIiBmb250LXNpemU9IjE0IiBsZW5ndGhBZGp1c3Q9InNwYWNpbmciIHRleHRMZW5ndGg9IjE4MyIgeD0iMjU1LjQ0ODkiIHk9IjYzOS4xMzIiPjMuMSBTdG9yZSBIYXNoIFRlbXBvcmFyaWx5PC90ZXh0PjwvZz48ZyBpZD0iZWxlbV9jaGVja19vbmxpbmUiPjxlbGxpcHNlIGN4PSI2MDYuODQwMSIgY3k9IjYzNS4yNjgiIGZpbGw9IiNGMUYxRjEiIHJ4PSIxMTYuODQwMSIgcnk9IjI1Ljc2OCIgc3R5bGU9InN0cm9rZTojMTgxODE4O3N0cm9rZS13aWR0aDowLjU7Ii8+PHRleHQgZmlsbD0iIzAwMDAwMCIgZm9udC1mYW1pbHk9InNhbnMtc2VyaWYiIGZvbnQtc2l6ZT0iMTQiIGxlbmd0aEFkanVzdD0ic3BhY2luZyIgdGV4dExlbmd0aD0iMjAzIiB4PSI1MDUuMzQwMSIgeT0iNjM5LjAxMDIiPjMuMiBDaGVjayBmb3IgUmVjZWl2ZXIgT25saW5lPC90ZXh0PjwvZz48ZyBpZD0iZWxlbV9yZXRyaWV2ZV9oYXNoIj48ZWxsaXBzZSBjeD0iMTI1Ljk1NTgiIGN5PSI2MzUuNTkxMiIgZmlsbD0iI0YxRjFGMSIgcng9Ijc4LjQ1NTgiIHJ5PSIxOC4wOTEyIiBzdHlsZT0ic3Ryb2tlOiMxODE4MTg7c3Ryb2tlLXdpZHRoOjAuNTsiLz48dGV4dCBmaWxsPSIjMDAwMDAwIiBmb250LWZhbWlseT0ic2Fucy1zZXJpZiIgZm9udC1zaXplPSIxNCIgbGVuZ3RoQWRqdXN0PSJzcGFjaW5nIiB0ZXh0TGVuZ3RoPSIxMTkiIHg9IjY2LjQ1NTgiIHk9IjYzOS4zMzMzIj4zLjMgUmV0cmlldmUgSGFzaDwvdGV4dD48L2c+PGcgaWQ9ImVsZW1fdXBsb2FkX2lwZnMiPjxlbGxpcHNlIGN4PSI4NjIuMDEzMiIgY3k9IjYzNS43MDI2IiBmaWxsPSIjRjFGMUYxIiByeD0iODEuNTEzMiIgcnk9IjE4LjcwMjYiIHN0eWxlPSJzdHJva2U6IzE4MTgxODtzdHJva2Utd2lkdGg6MC41OyIvPjx0ZXh0IGZpbGw9IiMwMDAwMDAiIGZvbnQtZmFtaWx5PSJzYW5zLXNlcmlmIiBmb250LXNpemU9IjE0IiBsZW5ndGhBZGp1c3Q9InNwYWNpbmciIHRleHRMZW5ndGg9IjEyNiIgeD0iNzk5LjAxMzIiIHk9IjYzOS40NDQ4Ij40LjEgVXBsb2FkIHRvIElQRlM8L3RleHQ+PC9nPjxnIGlkPSJlbGVtX3JldHJpZXZlX2lwZnMiPjxlbGxpcHNlIGN4PSIxMDczLjAxODIiIGN5PSI2MzUuMzAzNiIgZmlsbD0iI0YxRjFGMSIgcng9Ijk0LjUxODIiIHJ5PSIyMS4zMDM2IiBzdHlsZT0ic3Ryb2tlOiMxODE4MTg7c3Ryb2tlLXdpZHRoOjAuNTsiLz48dGV4dCBmaWxsPSIjMDAwMDAwIiBmb250LWZhbWlseT0ic2Fucy1zZXJpZiIgZm9udC1zaXplPSIxNCIgbGVuZ3RoQWRqdXN0PSJzcGFjaW5nIiB0ZXh0TGVuZ3RoPSIxNTUiIHg9Ijk5NS41MTgyIiB5PSI2MzkuMDQ1OCI+NC4yIFJldHJpZXZlIGZyb20gSVBGUzwvdGV4dD48L2c+PGcgaWQ9ImVsZW1fc2VuZF9oYXNoIj48ZWxsaXBzZSBjeD0iMTMyOC4yMjUyIiBjeT0iNjM1LjY0NSIgZmlsbD0iI0YxRjFGMSIgcng9IjEwMy43MjUyIiByeT0iMjMuMTQ1IiBzdHlsZT0ic3Ryb2tlOiMxODE4MTg7c3Ryb2tlLXdpZHRoOjAuNTsiLz48dGV4dCBmaWxsPSIjMDAwMDAwIiBmb250LWZhbWlseT0ic2Fucy1zZXJpZiIgZm9udC1zaXplPSIxNCIgbGVuZ3RoQWRqdXN0PSJzcGFjaW5nIiB0ZXh0TGVuZ3RoPSIxNzUiIHg9IjEyNDAuNzI1MiIgeT0iNjM5LjM4NzIiPjUuMSBTZW5kIEhhc2ggdG8gUmVjZWl2ZXI8L3RleHQ+PC9nPjxnIGlkPSJlbGVtX3JlY2VpdmVfaGFzaCI+PGVsbGlwc2UgY3g9IjE1ODEuMDExNiIgY3k9IjYzNS43MDIzIiBmaWxsPSIjRjFGMUYxIiByeD0iMTE0LjAxMTYiIHJ5PSIyNS4yMDIzIiBzdHlsZT0ic3Ryb2tlOiMxODE4MTg7c3Ryb2tlLXdpZHRoOjAuNTsiLz48dGV4dCBmaWxsPSIjMDAwMDAwIiBmb250LWZhbWlseT0ic2Fucy1zZXJpZiIgZm9udC1zaXplPSIxNCIgbGVuZ3RoQWRqdXN0PSJzcGFjaW5nIiB0ZXh0TGVuZ3RoPSIxOTciIHg9IjE0ODIuNTExNiIgeT0iNjM5LjQ0NDUiPjUuMiBSZWNlaXZlIEhhc2ggZnJvbSBTZW5kZXI8L3RleHQ+PC9nPjwhLS1lbnRpdHkgdXNlci0tPjxnIGlkPSJlbGVtX3VzZXIiPjxlbGxpcHNlIGN4PSIxMDE4IiBjeT0iMTQiIGZpbGw9IiNGMUYxRjEiIHJ4PSI4IiByeT0iOCIgc3R5bGU9InN0cm9rZTojMTgxODE4O3N0cm9rZS13aWR0aDowLjU7Ii8+PHBhdGggZD0iTTEwMTgsMjIgTDEwMTgsNDkgTTEwMDUsMzAgTDEwMzEsMzAgTTEwMTgsNDkgTDEwMDUsNjQgTTEwMTgsNDkgTDEwMzEsNjQgIiBmaWxsPSJub25lIiBzdHlsZT0ic3Ryb2tlOiMxODE4MTg7c3Ryb2tlLXdpZHRoOjAuNTsiLz48dGV4dCBmaWxsPSIjMDAwMDAwIiBmb250LWZhbWlseT0ic2Fucy1zZXJpZiIgZm9udC1zaXplPSIxNCIgbGVuZ3RoQWRqdXN0PSJzcGFjaW5nIiB0ZXh0TGVuZ3RoPSIyOCIgeD0iMTAwNCIgeT0iNzguNzM0NCI+VXNlcjwvdGV4dD48L2c+PCEtLWxpbmsgdXNlciB0byB1cGxvYWRfZGF0YS0tPjxnIGlkPSJsaW5rX3VzZXJfdXBsb2FkX2RhdGEiPjxwYXRoIGQ9Ik0xMDAzLjk4LDYyLjIgQzk5NC40Miw3NS4xNyA5ODEuOTIsOTMuMyA5NzMsMTEwLjUgQzk1NC4zMSwxNDYuNTQgOTQwLjkzMTEsMTg2LjIzNzQgOTMzLjU4MTEsMjEwLjAyNzQgIiBmaWxsPSJub25lIiBpZD0idXNlci10by11cGxvYWRfZGF0YSIgc3R5bGU9InN0cm9rZTojMTgxODE4O3N0cm9rZS13aWR0aDoxLjA7Ii8+PHBvbHlnb24gZmlsbD0iIzE4MTgxOCIgcG9pbnRzPSI5MzEuODEsMjE1Ljc2LDkzOC4yODg0LDIwOC4zNDE4LDkzMy4yODU5LDIxMC45ODI4LDkzMC42NDQ5LDIwNS45ODAzLDkzMS44MSwyMTUuNzYiIHN0eWxlPSJzdHJva2U6IzE4MTgxODtzdHJva2Utd2lkdGg6MS4wOyIvPjx0ZXh0IGZpbGw9IiMwMDAwMDAiIGZvbnQtZmFtaWx5PSJzYW5zLXNlcmlmIiBmb250LXNpemU9IjEzIiBsZW5ndGhBZGp1c3Q9InNwYWNpbmciIHRleHRMZW5ndGg9Ijc1IiB4PSI5NzQiIHk9IjEyMy43ODkxIj5VcGxvYWQgRGF0YTwvdGV4dD48L2c+PCEtLWxpbmsgdXNlciB0byByZXF1ZXN0X2RhdGEtLT48ZyBpZD0ibGlua191c2VyX3JlcXVlc3RfZGF0YSI+PHBhdGggZD0iTTEwMzIuMDYsNjkuMDYgQzEwMzguODgsODEuNDQgMTA0Ny4wNyw5Ni42NSAxMDU0LDExMC41IEMxMDcyLjUsMTQ3LjQ3IDEwODkuOTMwOSwxODYuMjc5MyAxMTAwLjMxMDksMjA5LjgzOTMgIiBmaWxsPSJub25lIiBpZD0idXNlci10by1yZXF1ZXN0X2RhdGEiIHN0eWxlPSJzdHJva2U6IzE4MTgxODtzdHJva2Utd2lkdGg6MS4wOyIvPjxwb2x5Z29uIGZpbGw9IiMxODE4MTgiIHBvaW50cz0iMTEwMi43MywyMTUuMzMsMTEwMi43NjE5LDIwNS40ODEyLDExMDAuNzE0MSwyMTAuNzU0NCwxMDk1LjQ0MDksMjA4LjcwNjYsMTEwMi43MywyMTUuMzMiIHN0eWxlPSJzdHJva2U6IzE4MTgxODtzdHJva2Utd2lkdGg6MS4wOyIvPjx0ZXh0IGZpbGw9IiMwMDAwMDAiIGZvbnQtZmFtaWx5PSJzYW5zLXNlcmlmIiBmb250LXNpemU9IjEzIiBsZW5ndGhBZGp1c3Q9InNwYWNpbmciIHRleHRMZW5ndGg9IjgyIiB4PSIxMDYxIiB5PSIxMjMuNzg5MSI+UmVxdWVzdCBEYXRhPC90ZXh0PjwvZz48IS0tbGluayB1cGxvYWRfZGF0YSB0byBoYW5kbGVfdXBsb2FkLS0+PGcgaWQ9ImxpbmtfdXBsb2FkX2RhdGFfaGFuZGxlX3VwbG9hZCI+PHBhdGggZD0iTTkxNC42NiwyNDkuODQgQzg5NS43MiwyNzQuMTUgODYzLjE4NzksMzE1LjkxNzIgODQyLjM5NzksMzQyLjU5NzIgIiBmaWxsPSJub25lIiBpZD0idXBsb2FkX2RhdGEtdG8taGFuZGxlX3VwbG9hZCIgc3R5bGU9InN0cm9rZTojMTgxODE4O3N0cm9rZS13aWR0aDoxLjA7Ii8+PHBvbHlnb24gZmlsbD0iIzE4MTgxOCIgcG9pbnRzPSI4MzguNzEsMzQ3LjMzLDg0Ny4zOTcxLDM0Mi42ODk1LDg0MS43ODMzLDM0My4zODYsODQxLjA4NjcsMzM3Ljc3MjIsODM4LjcxLDM0Ny4zMyIgc3R5bGU9InN0cm9rZTojMTgxODE4O3N0cm9rZS13aWR0aDoxLjA7Ii8+PHRleHQgZmlsbD0iIzAwMDAwMCIgZm9udC1mYW1pbHk9InNhbnMtc2VyaWYiIGZvbnQtc2l6ZT0iMTMiIGxlbmd0aEFkanVzdD0ic3BhY2luZyIgdGV4dExlbmd0aD0iOTciIHg9Ijg4OCIgeT0iMjk1Ljc4OTEiPlByb2Nlc3MgVXBsb2FkPC90ZXh0PjwvZz48IS0tbGluayByZXF1ZXN0X2RhdGEgdG8gaGFuZGxlX3JlcXVlc3QtLT48ZyBpZD0ibGlua19yZXF1ZXN0X2RhdGFfaGFuZGxlX3JlcXVlc3QiPjxwYXRoIGQ9Ik0xMTEyLjYyLDI1MC42NCBDMTExNi40MiwyNzQuODIgMTEyMi41NDY5LDMxMy43NjMgMTEyNi43MjY5LDM0MC4zMTMgIiBmaWxsPSJub25lIiBpZD0icmVxdWVzdF9kYXRhLXRvLWhhbmRsZV9yZXF1ZXN0IiBzdHlsZT0ic3Ryb2tlOiMxODE4MTg7c3Ryb2tlLXdpZHRoOjEuMDsiLz48cG9seWdvbiBmaWxsPSIjMTgxODE4IiBwb2ludHM9IjExMjcuNjYsMzQ2LjI0LDExMzAuMjExNiwzMzYuNzI3NCwxMTI2Ljg4MjQsMzQxLjMwMDgsMTEyMi4zMDksMzM3Ljk3MTYsMTEyNy42NiwzNDYuMjQiIHN0eWxlPSJzdHJva2U6IzE4MTgxODtzdHJva2Utd2lkdGg6MS4wOyIvPjx0ZXh0IGZpbGw9IiMwMDAwMDAiIGZvbnQtZmFtaWx5PSJzYW5zLXNlcmlmIiBmb250LXNpemU9IjEzIiBsZW5ndGhBZGp1c3Q9InNwYWNpbmciIHRleHRMZW5ndGg9IjEwNCIgeD0iMTEyMCIgeT0iMjk1Ljc4OTEiPlByb2Nlc3MgUmVxdWVzdDwvdGV4dD48L2c+PCEtLWxpbmsgaGFuZGxlX3VwbG9hZCB0byBpbnRlcmFjdF9pcGZzLS0+PGcgaWQ9ImxpbmtfaGFuZGxlX3VwbG9hZF9pbnRlcmFjdF9pcGZzIj48cGF0aCBkPSJNNzk2LjA5LDM4OC42NCBDNzgwLjYxLDQwMi4wMSA3NjYuMzQsNDIwLjE1IDc3OCw0MzUuNSBDNzkyLjEzLDQ1NC4xMiA4MzkuMzE1OSw0NjYuODI3NyA4ODUuNzk1OSw0NzUuNjc3NyAiIGZpbGw9Im5vbmUiIGlkPSJoYW5kbGVfdXBsb2FkLXRvLWludGVyYWN0X2lwZnMiIHN0eWxlPSJzdHJva2U6IzE4MTgxODtzdHJva2Utd2lkdGg6MS4wOyIvPjxwb2x5Z29uIGZpbGw9IiMxODE4MTgiIHBvaW50cz0iODkxLjY5LDQ3Ni44LDg4My41OTcsNDcxLjE4NzIsODg2Ljc3ODIsNDc1Ljg2NDgsODgyLjEwMDcsNDc5LjA0Niw4OTEuNjksNDc2LjgiIHN0eWxlPSJzdHJva2U6IzE4MTgxODtzdHJva2Utd2lkdGg6MS4wOyIvPjx0ZXh0IGZpbGw9IiMwMDAwMDAiIGZvbnQtZmFtaWx5PSJzYW5zLXNlcmlmIiBmb250LXNpemU9IjEzIiBsZW5ndGhBZGp1c3Q9InNwYWNpbmciIHRleHRMZW5ndGg9IjEyOSIgeD0iNzc5IiB5PSI0MzMuNzg5MSI+VXBsb2FkIERhdGEgdG8gSVBGUzwvdGV4dD48L2c+PCEtLWxpbmsgaW50ZXJhY3RfaXBmcyB0byB1cGxvYWRfaXBmcy0tPjxnIGlkPSJsaW5rX2ludGVyYWN0X2lwZnNfdXBsb2FkX2lwZnMiPjxwYXRoIGQ9Ik05MjMuMzksNTA4LjY5IEM5MDcuMDUsNTE3LjQ5IDg4OS45Miw1MjkuNjQgODc5LDU0NS41IEM4NjQuMjgsNTY2Ljg4IDg2MS41MTA2LDU5MS42NzAxIDg2MS4zODA2LDYxMC44NjAxICIgZmlsbD0ibm9uZSIgaWQ9ImludGVyYWN0X2lwZnMtdG8tdXBsb2FkX2lwZnMiIHN0eWxlPSJzdHJva2U6IzE4MTgxODtzdHJva2Utd2lkdGg6MS4wOyIvPjxwb2x5Z29uIGZpbGw9IiMxODE4MTgiIHBvaW50cz0iODYxLjM0LDYxNi44Niw4NjUuNDAwOSw2MDcuODg3Myw4NjEuMzczOSw2MTEuODYwMSw4NTcuNDAxMSw2MDcuODMzMSw4NjEuMzQsNjE2Ljg2IiBzdHlsZT0ic3Ryb2tlOiMxODE4MTg7c3Ryb2tlLXdpZHRoOjEuMDsiLz48dGV4dCBmaWxsPSIjMDAwMDAwIiBmb250LWZhbWlseT0ic2Fucy1zZXJpZiIgZm9udC1zaXplPSIxMyIgbGVuZ3RoQWRqdXN0PSJzcGFjaW5nIiB0ZXh0TGVuZ3RoPSIxMjIiIHg9Ijg4MCIgeT0iNTU4Ljc4OTEiPlN0b3JlIERhdGEgaW4gSVBGUzwvdGV4dD48L2c+PCEtLWxpbmsgaGFuZGxlX3VwbG9hZCB0byBpbnRlcmFjdF9saWJwMnAtLT48ZyBpZD0ibGlua19oYW5kbGVfdXBsb2FkX2ludGVyYWN0X2xpYnAycCI+PHBhdGggZD0iTTg1Ni4yMSwzODguMjYgQzg4OS4wNSw0MDYuNjggOTM1LjcsNDMyLjQ1IDk0NSw0MzUuNSBDOTk2LjQzLDQ1Mi4zNiAxMTI5LjA2MjcsNDY4LjM3NDIgMTIyNC42MDI3LDQ3OC4zOTQyICIgZmlsbD0ibm9uZSIgaWQ9ImhhbmRsZV91cGxvYWQtdG8taW50ZXJhY3RfbGlicDJwIiBzdHlsZT0ic3Ryb2tlOiMxODE4MTg7c3Ryb2tlLXdpZHRoOjEuMDsiLz48cG9seWdvbiBmaWxsPSIjMTgxODE4IiBwb2ludHM9IjEyMzAuNTcsNDc5LjAyLDEyMjIuMDM2Myw0NzQuMTAzMSwxMjI1LjU5NzMsNDc4LjQ5ODUsMTIyMS4yMDE5LDQ4Mi4wNTk0LDEyMzAuNTcsNDc5LjAyIiBzdHlsZT0ic3Ryb2tlOiMxODE4MTg7c3Ryb2tlLXdpZHRoOjEuMDsiLz48dGV4dCBmaWxsPSIjMDAwMDAwIiBmb250LWZhbWlseT0ic2Fucy1zZXJpZiIgZm9udC1zaXplPSIxMyIgbGVuZ3RoQWRqdXN0PSJzcGFjaW5nIiB0ZXh0TGVuZ3RoPSIxMzciIHg9Ijk0NiIgeT0iNDMzLjc4OTEiPlNlbmQgSGFzaCB2aWEgbGlicDJwPC90ZXh0PjwvZz48IS0tbGluayBpbnRlcmFjdF9saWJwMnAgdG8gc2VuZF9oYXNoLS0+PGcgaWQ9ImxpbmtfaW50ZXJhY3RfbGlicDJwX3NlbmRfaGFzaCI+PHBhdGggZD0iTTEzMjgsNTEzLjY0IEMxMzI4LDU0MC44MyAxMzI4LDU3OS42MiAxMzI4LDYwNi4zNyAiIGZpbGw9Im5vbmUiIGlkPSJpbnRlcmFjdF9saWJwMnAtdG8tc2VuZF9oYXNoIiBzdHlsZT0ic3Ryb2tlOiMxODE4MTg7c3Ryb2tlLXdpZHRoOjEuMDsiLz48cG9seWdvbiBmaWxsPSIjMTgxODE4IiBwb2ludHM9IjEzMjgsNjEyLjM3LDEzMzIsNjAzLjM3LDEzMjgsNjA3LjM3LDEzMjQsNjAzLjM3LDEzMjgsNjEyLjM3IiBzdHlsZT0ic3Ryb2tlOiMxODE4MTg7c3Ryb2tlLXdpZHRoOjEuMDsiLz48dGV4dCBmaWxsPSIjMDAwMDAwIiBmb250LWZhbWlseT0ic2Fucy1zZXJpZiIgZm9udC1zaXplPSIxMyIgbGVuZ3RoQWRqdXN0PSJzcGFjaW5nIiB0ZXh0TGVuZ3RoPSIxNjQiIHg9IjEzMjkiIHk9IjU1OC43ODkxIj5TaGFyZSBIYXNoIHdpdGggUmVjZWl2ZXI8L3RleHQ+PC9nPjwhLS1saW5rIGhhbmRsZV9yZXF1ZXN0IHRvIGludGVyYWN0X2xpYnAycC0tPjxnIGlkPSJsaW5rX2hhbmRsZV9yZXF1ZXN0X2ludGVyYWN0X2xpYnAycCI+PHBhdGggZD0iTTExOTMuOTgsMzg1LjQyIEMxMjE4LjczLDM5My40OSAxMjQ2LjUyLDQwNC45NSAxMjY5LDQyMC41IEMxMjg2LjQ4LDQzMi41OSAxMjk4LjQ4NTcsNDQ2LjE5NjEgMTMwOS4yMzU3LDQ2MC44MTYxICIgZmlsbD0ibm9uZSIgaWQ9ImhhbmRsZV9yZXF1ZXN0LXRvLWludGVyYWN0X2xpYnAycCIgc3R5bGU9InN0cm9rZTojMTgxODE4O3N0cm9rZS13aWR0aDoxLjA7Ii8+PHBvbHlnb24gZmlsbD0iIzE4MTgxOCIgcG9pbnRzPSIxMzEyLjc5LDQ2NS42NSwxMzEwLjY4MTEsNDU2LjAyOTYsMTMwOS44MjgsNDYxLjYyMTcsMTMwNC4yMzU5LDQ2MC43Njg3LDEzMTIuNzksNDY1LjY1IiBzdHlsZT0ic3Ryb2tlOiMxODE4MTg7c3Ryb2tlLXdpZHRoOjEuMDsiLz48dGV4dCBmaWxsPSIjMDAwMDAwIiBmb250LWZhbWlseT0ic2Fucy1zZXJpZiIgZm9udC1zaXplPSIxMyIgbGVuZ3RoQWRqdXN0PSJzcGFjaW5nIiB0ZXh0TGVuZ3RoPSIxNDMiIHg9IjEyODYiIHk9IjQzMy43ODkxIj5GZXRjaCBIYXNoIHZpYSBsaWJwMnA8L3RleHQ+PC9nPjwhLS1saW5rIGludGVyYWN0X2xpYnAycCB0byByZWNlaXZlX2hhc2gtLT48ZyBpZD0ibGlua19pbnRlcmFjdF9saWJwMnBfcmVjZWl2ZV9oYXNoIj48cGF0aCBkPSJNMTQwNy4zMiw1MDUuOTYgQzE0MzguNSw1MTQuNDEgMTQ3My41Niw1MjcuMDUgMTUwMiw1NDUuNSBDMTUyOC4xNyw1NjIuNDggMTU0Ny40NjY1LDU4NS41MDQ4IDE1NjEuNzU2NSw2MDUuNTQ0OCAiIGZpbGw9Im5vbmUiIGlkPSJpbnRlcmFjdF9saWJwMnAtdG8tcmVjZWl2ZV9oYXNoIiBzdHlsZT0ic3Ryb2tlOiMxODE4MTg7c3Ryb2tlLXdpZHRoOjEuMDsiLz48cG9seWdvbiBmaWxsPSIjMTgxODE4IiBwb2ludHM9IjE1NjUuMjQsNjEwLjQzLDE1NjMuMjcxNSw2MDAuNzc5OSwxNTYyLjMzNzEsNjA2LjM1OSwxNTU2Ljc1NzksNjA1LjQyNDUsMTU2NS4yNCw2MTAuNDMiIHN0eWxlPSJzdHJva2U6IzE4MTgxODtzdHJva2Utd2lkdGg6MS4wOyIvPjx0ZXh0IGZpbGw9IiMwMDAwMDAiIGZvbnQtZmFtaWx5PSJzYW5zLXNlcmlmIiBmb250LXNpemU9IjEzIiBsZW5ndGhBZGp1c3Q9InNwYWNpbmciIHRleHRMZW5ndGg9IjgzIiB4PSIxNTIwIiB5PSI1NTguNzg5MSI+UmVjZWl2ZSBIYXNoPC90ZXh0PjwvZz48IS0tbGluayBoYW5kbGVfcmVxdWVzdCB0byBpbnRlcmFjdF9pcGZzLS0+PGcgaWQ9ImxpbmtfaGFuZGxlX3JlcXVlc3RfaW50ZXJhY3RfaXBmcyI+PHBhdGggZD0iTTExMjIuNzIsMzkwLjYxIEMxMTE2LjIxLDQwNC44OSAxMTA1LjksNDIzLjI5IDEwOTIsNDM1LjUgQzEwNzMuMDksNDUyLjEgMTA1My44MTYzLDQ2Mi4wMjU1IDEwMzEuMzA2Myw0NzAuMzY1NSAiIGZpbGw9Im5vbmUiIGlkPSJoYW5kbGVfcmVxdWVzdC10by1pbnRlcmFjdF9pcGZzIiBzdHlsZT0ic3Ryb2tlOiMxODE4MTg7c3Ryb2tlLXdpZHRoOjEuMDsiLz48cG9seWdvbiBmaWxsPSIjMTgxODE4IiBwb2ludHM9IjEwMjUuNjgsNDcyLjQ1LDEwMzUuNTA5MSw0NzMuMDc0LDEwMzAuMzY4NSw0NzAuNzEyOSwxMDMyLjcyOTcsNDY1LjU3MjQsMTAyNS42OCw0NzIuNDUiIHN0eWxlPSJzdHJva2U6IzE4MTgxODtzdHJva2Utd2lkdGg6MS4wOyIvPjx0ZXh0IGZpbGw9IiMwMDAwMDAiIGZvbnQtZmFtaWx5PSJzYW5zLXNlcmlmIiBmb250LXNpemU9IjEzIiBsZW5ndGhBZGp1c3Q9InNwYWNpbmciIHRleHRMZW5ndGg9IjE1NSIgeD0iMTEwNSIgeT0iNDMzLjc4OTEiPlJldHJpZXZlIERhdGEgZnJvbSBJUEZTPC90ZXh0PjwvZz48IS0tbGluayBpbnRlcmFjdF9pcGZzIHRvIHJldHJpZXZlX2lwZnMtLT48ZyBpZD0ibGlua19pbnRlcmFjdF9pcGZzX3JldHJpZXZlX2lwZnMiPjxwYXRoIGQ9Ik05ODIuODIsNTEwLjgzIEMxMDAyLjcyLDUzOC4xMiAxMDM0LjM0NSw1ODEuNDkxOSAxMDU0LjM3NSw2MDguOTYxOSAiIGZpbGw9Im5vbmUiIGlkPSJpbnRlcmFjdF9pcGZzLXRvLXJldHJpZXZlX2lwZnMiIHN0eWxlPSJzdHJva2U6IzE4MTgxODtzdHJva2Utd2lkdGg6MS4wOyIvPjxwb2x5Z29uIGZpbGw9IiMxODE4MTgiIHBvaW50cz0iMTA1Ny45MSw2MTMuODEsMTA1NS44Mzk1LDYwNC4xODEyLDEwNTQuOTY0Miw2MDkuNzY5OSwxMDQ5LjM3NTQsNjA4Ljg5NDYsMTA1Ny45MSw2MTMuODEiIHN0eWxlPSJzdHJva2U6IzE4MTgxODtzdHJva2Utd2lkdGg6MS4wOyIvPjx0ZXh0IGZpbGw9IiMwMDAwMDAiIGZvbnQtZmFtaWx5PSJzYW5zLXNlcmlmIiBmb250LXNpemU9IjEzIiBsZW5ndGhBZGp1c3Q9InNwYWNpbmciIHRleHRMZW5ndGg9IjEzNSIgeD0iMTAxOCIgeT0iNTU4Ljc4OTEiPkZldGNoIERhdGEgZnJvbSBJUEZTPC90ZXh0PjwvZz48IS0tbGluayBoYW5kbGVfdXBsb2FkIHRvIG1hbmFnZV9xdWV1ZS0tPjxnIGlkPSJsaW5rX2hhbmRsZV91cGxvYWRfbWFuYWdlX3F1ZXVlIj48cGF0aCBkPSJNNzMxLjc1LDM3My42NSBDNjU4Ljg3LDM3OS4xMSA1NjUuMDgsMzkxLjY3IDU0MSw0MjAuNSBDNTI4LjgxLDQzNS4wOSA1MzcuMzY3OSw0NDkuMzg4OCA1NTEuOTc3OSw0NjMuMzg4OCAiIGZpbGw9Im5vbmUiIGlkPSJoYW5kbGVfdXBsb2FkLXRvLW1hbmFnZV9xdWV1ZSIgc3R5bGU9InN0cm9rZTojMTgxODE4O3N0cm9rZS13aWR0aDoxLjA7Ii8+PHBvbHlnb24gZmlsbD0iIzE4MTgxOCIgcG9pbnRzPSI1NTYuMzEsNDY3LjU0LDU1Mi41NzkzLDQ1OC40MjUxLDU1Mi42OTk5LDQ2NC4wODA2LDU0Ny4wNDQzLDQ2NC4yMDEyLDU1Ni4zMSw0NjcuNTQiIHN0eWxlPSJzdHJva2U6IzE4MTgxODtzdHJva2Utd2lkdGg6MS4wOyIvPjx0ZXh0IGZpbGw9IiMwMDAwMDAiIGZvbnQtZmFtaWx5PSJzYW5zLXNlcmlmIiBmb250LXNpemU9IjEzIiBsZW5ndGhBZGp1c3Q9InNwYWNpbmciIHRleHRMZW5ndGg9IjIyMiIgeD0iNTQyIiB5PSI0MzMuNzg5MSI+U3RvcmUgSGFzaCBpZiBSZWNlaXZlciBpcyBPZmZsaW5lPC90ZXh0PjwvZz48IS0tbGluayBtYW5hZ2VfcXVldWUgdG8gc3RvcmVfaGFzaC0tPjxnIGlkPSJsaW5rX21hbmFnZV9xdWV1ZV9zdG9yZV9oYXNoIj48cGF0aCBkPSJNNTE5LjEsNTA2LjkzIEM0OTEuMjksNTE1LjggNDU5LjE1LDUyOC40OCA0MzMsNTQ1LjUgQzQwNS40NSw1NjMuNDMgMzgzLjg2NDIsNTg3LjAzOTYgMzY3LjkzNDIsNjA2Ljg5OTYgIiBmaWxsPSJub25lIiBpZD0ibWFuYWdlX3F1ZXVlLXRvLXN0b3JlX2hhc2giIHN0eWxlPSJzdHJva2U6IzE4MTgxODtzdHJva2Utd2lkdGg6MS4wOyIvPjxwb2x5Z29uIGZpbGw9IiMxODE4MTgiIHBvaW50cz0iMzY0LjE4LDYxMS41OCwzNzIuOTMxNiw2MDcuMDYyMiwzNjcuMzA4NSw2MDcuNjc5NywzNjYuNjkxMSw2MDIuMDU2NiwzNjQuMTgsNjExLjU4IiBzdHlsZT0ic3Ryb2tlOiMxODE4MTg7c3Ryb2tlLXdpZHRoOjEuMDsiLz48dGV4dCBmaWxsPSIjMDAwMDAwIiBmb250LWZhbWlseT0ic2Fucy1zZXJpZiIgZm9udC1zaXplPSIxMyIgbGVuZ3RoQWRqdXN0PSJzcGFjaW5nIiB0ZXh0TGVuZ3RoPSIxNDkiIHg9IjQzNCIgeT0iNTU4Ljc4OTEiPlRlbXBvcmFyaWx5IFN0b3JlIEhhc2g8L3RleHQ+PC9nPjwhLS1saW5rIG1hbmFnZV9xdWV1ZSB0byBjaGVja19vbmxpbmUtLT48ZyBpZD0ibGlua19tYW5hZ2VfcXVldWVfY2hlY2tfb25saW5lIj48cGF0aCBkPSJNNTg2LjU5LDUxMi4wNiBDNTkwLjkzLDUzOC4xMSA1OTcuMjQzNiw1NzUuOTQxNiA2MDEuODMzNiw2MDMuNDgxNiAiIGZpbGw9Im5vbmUiIGlkPSJtYW5hZ2VfcXVldWUtdG8tY2hlY2tfb25saW5lIiBzdHlsZT0ic3Ryb2tlOiMxODE4MTg7c3Ryb2tlLXdpZHRoOjEuMDsiLz48cG9seWdvbiBmaWxsPSIjMTgxODE4IiBwb2ludHM9IjYwMi44Miw2MDkuNCw2MDUuMjg2LDU5OS44NjQ5LDYwMS45OTgsNjA0LjQ2OCw1OTcuMzk0OCw2MDEuMTgwMSw2MDIuODIsNjA5LjQiIHN0eWxlPSJzdHJva2U6IzE4MTgxODtzdHJva2Utd2lkdGg6MS4wOyIvPjx0ZXh0IGZpbGw9IiMwMDAwMDAiIGZvbnQtZmFtaWx5PSJzYW5zLXNlcmlmIiBmb250LXNpemU9IjEzIiBsZW5ndGhBZGp1c3Q9InNwYWNpbmciIHRleHRMZW5ndGg9IjE4MyIgeD0iNTk1IiB5PSI1NTguNzg5MSI+Q2hlY2sgaWYgUmVjZWl2ZXIgaXMgT25saW5lPC90ZXh0PjwvZz48IS0tbGluayBtYW5hZ2VfcXVldWUgdG8gcmV0cmlldmVfaGFzaC0tPjxnIGlkPSJsaW5rX21hbmFnZV9xdWV1ZV9yZXRyaWV2ZV9oYXNoIj48cGF0aCBkPSJNNDgzLjQzLDQ5Mi43OSBDMzc2LjYyLDQ5Ny4xMSAyMTUuNzQsNTA5LjU3IDE2Nyw1NDUuNSBDMTQzLjU4LDU2Mi43NiAxMzQuMzk4NSw1OTAuNzk5MiAxMzAuMDQ4NSw2MTEuNDE5MiAiIGZpbGw9Im5vbmUiIGlkPSJtYW5hZ2VfcXVldWUtdG8tcmV0cmlldmVfaGFzaCIgc3R5bGU9InN0cm9rZTojMTgxODE4O3N0cm9rZS13aWR0aDoxLjA7Ii8+PHBvbHlnb24gZmlsbD0iIzE4MTgxOCIgcG9pbnRzPSIxMjguODEsNjE3LjI5LDEzNC41ODE2LDYwOS4zMDk1LDEyOS44NDIxLDYxMi4zOTc3LDEyNi43NTM5LDYwNy42NTgyLDEyOC44MSw2MTcuMjkiIHN0eWxlPSJzdHJva2U6IzE4MTgxODtzdHJva2Utd2lkdGg6MS4wOyIvPjx0ZXh0IGZpbGw9IiMwMDAwMDAiIGZvbnQtZmFtaWx5PSJzYW5zLXNlcmlmIiBmb250LXNpemU9IjEzIiBsZW5ndGhBZGp1c3Q9InNwYWNpbmciIHRleHRMZW5ndGg9IjIzNyIgeD0iMTY4IiB5PSI1NTguNzg5MSI+UmV0cmlldmUgSGFzaCBpZiBSZWNlaXZlciBpcyBPbmxpbmU8L3RleHQ+PC9nPjwhLS1TUkM9W1pQSERSemltMzhSbF9YTDRKamlYMHZnRklteXhmNEVtMGx0OGNsTGlnOGVTMng1Ykx2UEozQ04tIC1vWEFpUUw0QlBQQjRlY0YtRWViSFNQRGUtNnY0bmZPMXByLVB2YU10MzJyaG1IQ0xiTjMzeG5hS2FyTmgxQ3gtQzRDV3N0OWo1SHhzNUpDNThzazl2UGpfSHp1cHBCMEp0M0FNWlZBMkJNM0JxLTJTVkVMdWVsSnVaazVzbS1jdnZXNTliVlZoazJ2aEhoYzRiOXlKX19wN1Z2RjBKRHU0Zy16d0NuOFFCU204ZHlsYkFxT0Z3MDYyZHpubHJEd1BnWmQ5ckN4SENXMGZ1c2VhZlBwZm92NXBZQklZbW5IQnBGNXBrNlVBUk9OUzItd3BkeF93YUtsMkF2Zjh0LXIyb2JxMFJUZWhxUXh1S3NRNGN1dHdvczFxWV9kaVlzdzVCYzRjd1FrVW9LdkNtQUVhYTRiTnpmUDZ6RGt4R0RSNHRCVDJpYkRFSm43WHhWT1lXQlR3YWh1QlVnc3FUWGJySF8yRXhrTGJ4WUxHY1RtS21mLTA2bV9EOVdCVVNIc1ZiSUxMMnV2anhqdkdtaWZWZXdLcUw4U05OUlZGNnZiSjdmdkpVaWZnU1FSRU5WR3FqSmo1Y0NfY3NPaVhNX2ZUMjRNckQ5VTVad01Va0c2UkdEdmdVc0V3V0NGbWhtci1hMk9BcmJBdHpBd1J0a1ZwNFU5OW5VVC1SWnBXVlRCNGFjblpZTVh6WVpGUWhTUGtlWFF4UG8xd1ZIeC1BWlhFZHBvT3FadVlaNGNWRUxQWURsT3czNVl5NE90NzFsRjd2bjVIbU5uVlpxMFY5T2lZcS1xSkZILU9qNmR1Y1BuSjcxSHB4WEU5cUdnWHRvSW9EVmpFWVpILTJncHlwMkIzWE1wNDB2aE5ubVExQVZJM2RTeHRKd1RTb3FDQl95aFFMWGdBakpPNWYtY3lmdUNsS3dzMzBzVnkzOWdfcTdZNlBPbUQxb1BHbjdlUGg4T3Z1Uml1QjRlUTVINDBGYXdaMjdhV25hTGQ3SzlYVEM3Q0pVZ3BaRWdUQzllMmVLYzlNTko4VnkwXS0tPjwvZz48L3N2Zz4=;" vertex="1" parent="1">
            <mxGeometry x="-710" y="-400" width="1741" height="707" as="geometry" />
          </mxCell>
        </UserObject>
        <UserObject label="" plantUmlData="{&#xa;  &quot;data&quot;: &quot;@startuml\n\nactor User as user\n\nrectangle \&quot;Frontend (React)\&quot; as frontend {\n    usecase \&quot;1.1.1 Enter Data\&quot; as enter_data\n    usecase \&quot;1.1.2 Submit Data\&quot; as submit_data\n    usecase \&quot;1.2.1 Request Data\&quot; as request_data\n}\n\nrectangle \&quot;Backend\&quot; as backend {\n    usecase \&quot;2.1.1 Validate Data\&quot; as validate_data\n    usecase \&quot;2.1.2 Generate Data Hash\&quot; as generate_hash\n    usecase \&quot;2.2.1 Check Receiver Status\&quot; as check_status\n    usecase \&quot;2.2.2 Store Hash in Queue\&quot; as store_queue\n    usecase \&quot;2.3.1 Upload Data to IPFS\&quot; as upload_ipfs\n    usecase \&quot;2.3.2 Retrieve Data from IPFS\&quot; as retrieve_ipfs\n    usecase \&quot;2.4.1 Send Hash via libp2p\&quot; as send_hash\n    usecase \&quot;2.4.2 Receive Hash via libp2p\&quot; as receive_hash\n}\n\nrectangle \&quot;Message Queue\&quot; as messagequeue {\n    usecase \&quot;3.1.1 Temporarily Store Hash\&quot; as temp_store\n    usecase \&quot;3.1.2 Retrieve Hash when Online\&quot; as retrieve_hash\n}\n\nrectangle \&quot;IPFS Storage\&quot; as ipfs {\n    usecase \&quot;4.1.1 Store Data\&quot; as store_data\n    usecase \&quot;4.1.2 Fetch Data\&quot; as fetch_data\n}\n\nrectangle \&quot;Libp2p Network\&quot; as libp2p {\n    usecase \&quot;5.1.1 Transmit Hash\&quot; as transmit_hash\n    usecase \&quot;5.1.2 Receive Hash\&quot; as receive_hash_libp2p\n}\n\nuser --&gt; enter_data : Enter Data\nuser --&gt; submit_data : Submit Data\nuser --&gt; request_data : Request Data\n\nsubmit_data --&gt; validate_data : Validate Input Data\nvalidate_data --&gt; generate_hash : Generate Hash for Data\n\ngenerate_hash --&gt; upload_ipfs : Upload Data to IPFS\nupload_ipfs --&gt; store_data : Store Data in IPFS\n\ngenerate_hash --&gt; send_hash : Send Hash to Receiver via libp2p\nsend_hash --&gt; transmit_hash : Transmit Hash to Peer via libp2p\n\nrequest_data --&gt; receive_hash : Receive Hash from libp2p\nreceive_hash --&gt; receive_hash_libp2p : Receive Hash from Peer\n\nreceive_hash --&gt; retrieve_ipfs : Fetch Data from IPFS\nretrieve_ipfs --&gt; fetch_data : Get Data from IPFS\n\ngenerate_hash --&gt; check_status : Check if Receiver is Online\ncheck_status --&gt; store_queue : Store Hash in Message Queue if Offline\nstore_queue --&gt; temp_store : Temporarily Store Hash\n\ntemp_store --&gt; retrieve_hash : Retrieve Hash when Receiver is Online\n\n@enduml\n&quot;,&#xa;  &quot;format&quot;: &quot;svg&quot;&#xa;}" id="YPq_3mBggtz7-B7VUp4G-3">
          <mxCell style="shape=image;noLabel=1;verticalAlign=top;aspect=fixed;imageAspect=0;image=data:image/svg+xml,PD94bWwgdmVyc2lvbj0iMS4wIiBlbmNvZGluZz0idXMtYXNjaWkiIHN0YW5kYWxvbmU9Im5vIj8+PHN2ZyB4bWxucz0iaHR0cDovL3d3dy53My5vcmcvMjAwMC9zdmciIHhtbG5zOnhsaW5rPSJodHRwOi8vd3d3LnczLm9yZy8xOTk5L3hsaW5rIiBjb250ZW50U3R5bGVUeXBlPSJ0ZXh0L2NzcyIgaGVpZ2h0PSIxMDQ0cHgiIHByZXNlcnZlQXNwZWN0UmF0aW89Im5vbmUiIHN0eWxlPSJ3aWR0aDoxNTc3cHg7aGVpZ2h0OjEwNDRweDtiYWNrZ3JvdW5kOiNGRkZGRkY7IiB2ZXJzaW9uPSIxLjEiIHZpZXdCb3g9IjAgMCAxNTc3IDEwNDQiIHdpZHRoPSIxNTc3cHgiIHpvb21BbmRQYW49Im1hZ25pZnkiPjxkZWZzLz48Zz48IS0tY2x1c3RlciBmcm9udGVuZC0tPjxnIGlkPSJjbHVzdGVyX2Zyb250ZW5kIj48cmVjdCBmaWxsPSJub25lIiBoZWlnaHQ9Ijg2IiByeD0iMi41IiByeT0iMi41IiBzdHlsZT0ic3Ryb2tlOiMxODE4MTg7c3Ryb2tlLXdpZHRoOjEuMDsiIHdpZHRoPSI1NzYiIHg9IjUxOSIgeT0iMTQxLjUiLz48dGV4dCBmaWxsPSIjMDAwMDAwIiBmb250LWZhbWlseT0ic2Fucy1zZXJpZiIgZm9udC1zaXplPSIxNCIgZm9udC13ZWlnaHQ9ImJvbGQiIGxlbmd0aEFkanVzdD0ic3BhY2luZyIgdGV4dExlbmd0aD0iMTE0IiB4PSI3NTAiIHk9IjE1Ni43MzQ0Ij5Gcm9udGVuZCAoUmVhY3QpPC90ZXh0PjwvZz48IS0tY2x1c3RlciBiYWNrZW5kLS0+PGcgaWQ9ImNsdXN0ZXJfYmFja2VuZCI+PHJlY3QgZmlsbD0ibm9uZSIgaGVpZ2h0PSI0ODguNSIgcng9IjIuNSIgcnk9IjIuNSIgc3R5bGU9InN0cm9rZTojMTgxODE4O3N0cm9rZS13aWR0aDoxLjA7IiB3aWR0aD0iNzQ1IiB4PSI0MDEiIHk9IjI3NC41Ii8+PHRleHQgZmlsbD0iIzAwMDAwMCIgZm9udC1mYW1pbHk9InNhbnMtc2VyaWYiIGZvbnQtc2l6ZT0iMTQiIGZvbnQtd2VpZ2h0PSJib2xkIiBsZW5ndGhBZGp1c3Q9InNwYWNpbmciIHRleHRMZW5ndGg9IjQ5IiB4PSI3NDkiIHk9IjI4OS43MzQ0Ij5CYWNrZW5kPC90ZXh0PjwvZz48IS0tY2x1c3RlciBtZXNzYWdlcXVldWUtLT48ZyBpZD0iY2x1c3Rlcl9tZXNzYWdlcXVldWUiPjxyZWN0IGZpbGw9Im5vbmUiIGhlaWdodD0iMjI4IiByeD0iMi41IiByeT0iMi41IiBzdHlsZT0ic3Ryb2tlOiMxODE4MTg7c3Ryb2tlLXdpZHRoOjEuMDsiIHdpZHRoPSIzMjEiIHg9IjY0MCIgeT0iODEwIi8+PHRleHQgZmlsbD0iIzAwMDAwMCIgZm9udC1mYW1pbHk9InNhbnMtc2VyaWYiIGZvbnQtc2l6ZT0iMTQiIGZvbnQtd2VpZ2h0PSJib2xkIiBsZW5ndGhBZGp1c3Q9InNwYWNpbmciIHRleHRMZW5ndGg9IjkxIiB4PSI3NTUiIHk9IjgyNS4yMzQ0Ij5NZXNzYWdlIFF1ZXVlPC90ZXh0PjwvZz48IS0tY2x1c3RlciBpcGZzLS0+PGcgaWQ9ImNsdXN0ZXJfaXBmcyI+PHJlY3QgZmlsbD0ibm9uZSIgaGVpZ2h0PSI4NCIgcng9IjIuNSIgcnk9IjIuNSIgc3R5bGU9InN0cm9rZTojMTgxODE4O3N0cm9rZS13aWR0aDoxLjA7IiB3aWR0aD0iMzcwIiB4PSI3IiB5PSI2NzMuNSIvPjx0ZXh0IGZpbGw9IiMwMDAwMDAiIGZvbnQtZmFtaWx5PSJzYW5zLXNlcmlmIiBmb250LXNpemU9IjE0IiBmb250LXdlaWdodD0iYm9sZCIgbGVuZ3RoQWRqdXN0PSJzcGFjaW5nIiB0ZXh0TGVuZ3RoPSI4NCIgeD0iMTUwIiB5PSI2ODguNzM0NCI+SVBGUyBTdG9yYWdlPC90ZXh0PjwvZz48IS0tY2x1c3RlciBsaWJwMnAtLT48ZyBpZD0iY2x1c3Rlcl9saWJwMnAiPjxyZWN0IGZpbGw9Im5vbmUiIGhlaWdodD0iODgiIHJ4PSIyLjUiIHJ5PSIyLjUiIHN0eWxlPSJzdHJva2U6IzE4MTgxODtzdHJva2Utd2lkdGg6MS4wOyIgd2lkdGg9IjQwMSIgeD0iMTE3MCIgeT0iNjcxLjUiLz48dGV4dCBmaWxsPSIjMDAwMDAwIiBmb250LWZhbWlseT0ic2Fucy1zZXJpZiIgZm9udC1zaXplPSIxNCIgZm9udC13ZWlnaHQ9ImJvbGQiIGxlbmd0aEFkanVzdD0ic3BhY2luZyIgdGV4dExlbmd0aD0iOTkiIHg9IjEzMjEiIHk9IjY4Ni43MzQ0Ij5MaWJwMnAgTmV0d29yazwvdGV4dD48L2c+PGcgaWQ9ImVsZW1fZW50ZXJfZGF0YSI+PGVsbGlwc2UgY3g9IjYxMC45Mzg0IiBjeT0iMTkyLjk4NzciIGZpbGw9IiNGMUYxRjEiIHJ4PSI3NS40Mzg0IiByeT0iMTcuNDg3NyIgc3R5bGU9InN0cm9rZTojMTgxODE4O3N0cm9rZS13aWR0aDowLjU7Ii8+PHRleHQgZmlsbD0iIzAwMDAwMCIgZm9udC1mYW1pbHk9InNhbnMtc2VyaWYiIGZvbnQtc2l6ZT0iMTQiIGxlbmd0aEFkanVzdD0ic3BhY2luZyIgdGV4dExlbmd0aD0iMTEyIiB4PSI1NTQuOTM4NCIgeT0iMTk2LjcyOTkiPjEuMS4xIEVudGVyIERhdGE8L3RleHQ+PC9nPjxnIGlkPSJlbGVtX3N1Ym1pdF9kYXRhIj48ZWxsaXBzZSBjeD0iODAwLjg5MDIiIGN5PSIxOTMuMTc4IiBmaWxsPSIjRjFGMUYxIiByeD0iNzguODkwMiIgcnk9IjE4LjE3OCIgc3R5bGU9InN0cm9rZTojMTgxODE4O3N0cm9rZS13aWR0aDowLjU7Ii8+PHRleHQgZmlsbD0iIzAwMDAwMCIgZm9udC1mYW1pbHk9InNhbnMtc2VyaWYiIGZvbnQtc2l6ZT0iMTQiIGxlbmd0aEFkanVzdD0ic3BhY2luZyIgdGV4dExlbmd0aD0iMTIwIiB4PSI3NDAuODkwMiIgeT0iMTk2LjkyMDIiPjEuMS4yIFN1Ym1pdCBEYXRhPC90ZXh0PjwvZz48ZyBpZD0iZWxlbV9yZXF1ZXN0X2RhdGEiPjxlbGxpcHNlIGN4PSI5OTcuMDEzMiIgY3k9IjE5My4yMDI2IiBmaWxsPSIjRjFGMUYxIiByeD0iODEuNTEzMiIgcnk9IjE4LjcwMjYiIHN0eWxlPSJzdHJva2U6IzE4MTgxODtzdHJva2Utd2lkdGg6MC41OyIvPjx0ZXh0IGZpbGw9IiMwMDAwMDAiIGZvbnQtZmFtaWx5PSJzYW5zLXNlcmlmIiBmb250LXNpemU9IjE0IiBsZW5ndGhBZGp1c3Q9InNwYWNpbmciIHRleHRMZW5ndGg9IjEyNiIgeD0iOTM0LjAxMzIiIHk9IjE5Ni45NDQ4Ij4xLjIuMSBSZXF1ZXN0IERhdGE8L3RleHQ+PC9nPjxnIGlkPSJlbGVtX3ZhbGlkYXRlX2RhdGEiPjxlbGxpcHNlIGN4PSI3NzYuMTA2MiIgY3k9IjMzMy4zMjEyIiBmaWxsPSIjRjFGMUYxIiByeD0iODQuNjA2MiIgcnk9IjE5LjMyMTIiIHN0eWxlPSJzdHJva2U6IzE4MTgxODtzdHJva2Utd2lkdGg6MC41OyIvPjx0ZXh0IGZpbGw9IiMwMDAwMDAiIGZvbnQtZmFtaWx5PSJzYW5zLXNlcmlmIiBmb250LXNpemU9IjE0IiBsZW5ndGhBZGp1c3Q9InNwYWNpbmciIHRleHRMZW5ndGg9IjEzMyIgeD0iNzA5LjYwNjIiIHk9IjMzNy4wNjM0Ij4yLjEuMSBWYWxpZGF0ZSBEYXRhPC90ZXh0PjwvZz48ZyBpZD0iZWxlbV9nZW5lcmF0ZV9oYXNoIj48ZWxsaXBzZSBjeD0iNzg3Ljk4NSIgY3k9IjQ2MC40OTciIGZpbGw9IiNGMUYxRjEiIHJ4PSIxMDAuNDg1IiByeT0iMjIuNDk3IiBzdHlsZT0ic3Ryb2tlOiMxODE4MTg7c3Ryb2tlLXdpZHRoOjAuNTsiLz48dGV4dCBmaWxsPSIjMDAwMDAwIiBmb250LWZhbWlseT0ic2Fucy1zZXJpZiIgZm9udC1zaXplPSIxNCIgbGVuZ3RoQWRqdXN0PSJzcGFjaW5nIiB0ZXh0TGVuZ3RoPSIxNjgiIHg9IjcwMy45ODUiIHk9IjQ2NC4yMzkyIj4yLjEuMiBHZW5lcmF0ZSBEYXRhIEhhc2g8L3RleHQ+PC9nPjxnIGlkPSJlbGVtX2NoZWNrX3N0YXR1cyI+PGVsbGlwc2UgY3g9Ijc2OS43NTQ3IiBjeT0iNTg1Ljk1MDkiIGZpbGw9IiNGMUYxRjEiIHJ4PSIxMTAuMjU0NyIgcnk9IjI0LjQ1MDkiIHN0eWxlPSJzdHJva2U6IzE4MTgxODtzdHJva2Utd2lkdGg6MC41OyIvPjx0ZXh0IGZpbGw9IiMwMDAwMDAiIGZvbnQtZmFtaWx5PSJzYW5zLXNlcmlmIiBmb250LXNpemU9IjE0IiBsZW5ndGhBZGp1c3Q9InNwYWNpbmciIHRleHRMZW5ndGg9IjE4OSIgeD0iNjc1LjI1NDciIHk9IjU4OS42OTMxIj4yLjIuMSBDaGVjayBSZWNlaXZlciBTdGF0dXM8L3RleHQ+PC9nPjxnIGlkPSJlbGVtX3N0b3JlX3F1ZXVlIj48ZWxsaXBzZSBjeD0iNzcwLjIyNTIiIGN5PSI3MjQuMTQ1IiBmaWxsPSIjRjFGMUYxIiByeD0iMTAzLjcyNTIiIHJ5PSIyMy4xNDUiIHN0eWxlPSJzdHJva2U6IzE4MTgxODtzdHJva2Utd2lkdGg6MC41OyIvPjx0ZXh0IGZpbGw9IiMwMDAwMDAiIGZvbnQtZmFtaWx5PSJzYW5zLXNlcmlmIiBmb250LXNpemU9IjE0IiBsZW5ndGhBZGp1c3Q9InNwYWNpbmciIHRleHRMZW5ndGg9IjE3NSIgeD0iNjgyLjcyNTIiIHk9IjcyNy44ODcyIj4yLjIuMiBTdG9yZSBIYXNoIGluIFF1ZXVlPC90ZXh0PjwvZz48ZyBpZD0iZWxlbV91cGxvYWRfaXBmcyI+PGVsbGlwc2UgY3g9IjUyMS4yMjUyIiBjeT0iNTg2LjE0NSIgZmlsbD0iI0YxRjFGMSIgcng9IjEwMy43MjUyIiByeT0iMjMuMTQ1IiBzdHlsZT0ic3Ryb2tlOiMxODE4MTg7c3Ryb2tlLXdpZHRoOjAuNTsiLz48dGV4dCBmaWxsPSIjMDAwMDAwIiBmb250LWZhbWlseT0ic2Fucy1zZXJpZiIgZm9udC1zaXplPSIxNCIgbGVuZ3RoQWRqdXN0PSJzcGFjaW5nIiB0ZXh0TGVuZ3RoPSIxNzUiIHg9IjQzMy43MjUyIiB5PSI1ODkuODg3MiI+Mi4zLjEgVXBsb2FkIERhdGEgdG8gSVBGUzwvdGV4dD48L2c+PGcgaWQ9ImVsZW1fcmV0cmlldmVfaXBmcyI+PGVsbGlwc2UgY3g9IjUzNC44MTI0IiBjeT0iNDYwLjM2MjUiIGZpbGw9IiNGMUYxRjEiIHJ4PSIxMTcuMzEyNCIgcnk9IjI1Ljg2MjUiIHN0eWxlPSJzdHJva2U6IzE4MTgxODtzdHJva2Utd2lkdGg6MC41OyIvPjx0ZXh0IGZpbGw9IiMwMDAwMDAiIGZvbnQtZmFtaWx5PSJzYW5zLXNlcmlmIiBmb250LXNpemU9IjE0IiBsZW5ndGhBZGp1c3Q9InNwYWNpbmciIHRleHRMZW5ndGg9IjIwNCIgeD0iNDMyLjgxMjQiIHk9IjQ2NC4xMDQ3Ij4yLjMuMiBSZXRyaWV2ZSBEYXRhIGZyb20gSVBGUzwvdGV4dD48L2c+PGcgaWQ9ImVsZW1fc2VuZF9oYXNoIj48ZWxsaXBzZSBjeD0iMTAyMi45ODIzIiBjeT0iNTg1Ljc5NjUiIGZpbGw9IiNGMUYxRjEiIHJ4PSIxMDYuOTgyMyIgcnk9IjIzLjc5NjUiIHN0eWxlPSJzdHJva2U6IzE4MTgxODtzdHJva2Utd2lkdGg6MC41OyIvPjx0ZXh0IGZpbGw9IiMwMDAwMDAiIGZvbnQtZmFtaWx5PSJzYW5zLXNlcmlmIiBmb250LXNpemU9IjE0IiBsZW5ndGhBZGp1c3Q9InNwYWNpbmciIHRleHRMZW5ndGg9IjE4MiIgeD0iOTMxLjk4MjMiIHk9IjU4OS41Mzg3Ij4yLjQuMSBTZW5kIEhhc2ggdmlhIGxpYnAycDwvdGV4dD48L2c+PGcgaWQ9ImVsZW1fcmVjZWl2ZV9oYXNoIj48ZWxsaXBzZSBjeD0iMTAxMi44NDAxIiBjeT0iMzMzLjI2OCIgZmlsbD0iI0YxRjFGMSIgcng9IjExNi44NDAxIiByeT0iMjUuNzY4IiBzdHlsZT0ic3Ryb2tlOiMxODE4MTg7c3Ryb2tlLXdpZHRoOjAuNTsiLz48dGV4dCBmaWxsPSIjMDAwMDAwIiBmb250LWZhbWlseT0ic2Fucy1zZXJpZiIgZm9udC1zaXplPSIxNCIgbGVuZ3RoQWRqdXN0PSJzcGFjaW5nIiB0ZXh0TGVuZ3RoPSIyMDMiIHg9IjkxMS4zNDAxIiB5PSIzMzcuMDEwMiI+Mi40LjIgUmVjZWl2ZSBIYXNoIHZpYSBsaWJwMnA8L3RleHQ+PC9nPjxnIGlkPSJlbGVtX3RlbXBfc3RvcmUiPjxlbGxpcHNlIGN4PSI3NzAuMDExNiIgY3k9Ijg2OC4yMDIzIiBmaWxsPSIjRjFGMUYxIiByeD0iMTE0LjAxMTYiIHJ5PSIyNS4yMDIzIiBzdHlsZT0ic3Ryb2tlOiMxODE4MTg7c3Ryb2tlLXdpZHRoOjAuNTsiLz48dGV4dCBmaWxsPSIjMDAwMDAwIiBmb250LWZhbWlseT0ic2Fucy1zZXJpZiIgZm9udC1zaXplPSIxNCIgbGVuZ3RoQWRqdXN0PSJzcGFjaW5nIiB0ZXh0TGVuZ3RoPSIxOTciIHg9IjY3MS41MTE2IiB5PSI4NzEuOTQ0NSI+My4xLjEgVGVtcG9yYXJpbHkgU3RvcmUgSGFzaDwvdGV4dD48L2c+PGcgaWQ9ImVsZW1fcmV0cmlldmVfaGFzaCI+PGVsbGlwc2UgY3g9Ijc3OS45NDc2IiBjeT0iOTk1LjE4OTUiIGZpbGw9IiNGMUYxRjEiIHJ4PSIxMjMuOTQ3NiIgcnk9IjI3LjE4OTUiIHN0eWxlPSJzdHJva2U6IzE4MTgxODtzdHJva2Utd2lkdGg6MC41OyIvPjx0ZXh0IGZpbGw9IiMwMDAwMDAiIGZvbnQtZmFtaWx5PSJzYW5zLXNlcmlmIiBmb250LXNpemU9IjE0IiBsZW5ndGhBZGp1c3Q9InNwYWNpbmciIHRleHRMZW5ndGg9IjIxOCIgeD0iNjcwLjk0NzYiIHk9Ijk5OC45MzE3Ij4zLjEuMiBSZXRyaWV2ZSBIYXNoIHdoZW4gT25saW5lPC90ZXh0PjwvZz48ZyBpZD0iZWxlbV9zdG9yZV9kYXRhIj48ZWxsaXBzZSBjeD0iMjg0LjkzODQiIGN5PSI3MjMuOTg3NyIgZmlsbD0iI0YxRjFGMSIgcng9Ijc1LjQzODQiIHJ5PSIxNy40ODc3IiBzdHlsZT0ic3Ryb2tlOiMxODE4MTg7c3Ryb2tlLXdpZHRoOjAuNTsiLz48dGV4dCBmaWxsPSIjMDAwMDAwIiBmb250LWZhbWlseT0ic2Fucy1zZXJpZiIgZm9udC1zaXplPSIxNCIgbGVuZ3RoQWRqdXN0PSJzcGFjaW5nIiB0ZXh0TGVuZ3RoPSIxMTIiIHg9IjIyOC45Mzg0IiB5PSI3MjcuNzI5OSI+NC4xLjEgU3RvcmUgRGF0YTwvdGV4dD48L2c+PGcgaWQ9ImVsZW1fZmV0Y2hfZGF0YSI+PGVsbGlwc2UgY3g9Ijk4LjkzODQiIGN5PSI3MjMuOTg3NyIgZmlsbD0iI0YxRjFGMSIgcng9Ijc1LjQzODQiIHJ5PSIxNy40ODc3IiBzdHlsZT0ic3Ryb2tlOiMxODE4MTg7c3Ryb2tlLXdpZHRoOjAuNTsiLz48dGV4dCBmaWxsPSIjMDAwMDAwIiBmb250LWZhbWlseT0ic2Fucy1zZXJpZiIgZm9udC1zaXplPSIxNCIgbGVuZ3RoQWRqdXN0PSJzcGFjaW5nIiB0ZXh0TGVuZ3RoPSIxMTIiIHg9IjQyLjkzODQiIHk9IjcyNy43Mjk5Ij40LjEuMiBGZXRjaCBEYXRhPC90ZXh0PjwvZz48ZyBpZD0iZWxlbV90cmFuc21pdF9oYXNoIj48ZWxsaXBzZSBjeD0iMTI3MS4wNTA3IiBjeT0iNzIzLjkxMDEiIGZpbGw9IiNGMUYxRjEiIHJ4PSI4NS4wNTA3IiByeT0iMTkuNDEwMSIgc3R5bGU9InN0cm9rZTojMTgxODE4O3N0cm9rZS13aWR0aDowLjU7Ii8+PHRleHQgZmlsbD0iIzAwMDAwMCIgZm9udC1mYW1pbHk9InNhbnMtc2VyaWYiIGZvbnQtc2l6ZT0iMTQiIGxlbmd0aEFkanVzdD0ic3BhY2luZyIgdGV4dExlbmd0aD0iMTM0IiB4PSIxMjA0LjA1MDciIHk9IjcyNy42NTIzIj41LjEuMSBUcmFuc21pdCBIYXNoPC90ZXh0PjwvZz48ZyBpZD0iZWxlbV9yZWNlaXZlX2hhc2hfbGlicDJwIj48ZWxsaXBzZSBjeD0iMTQ3My4wMTMyIiBjeT0iNzI0LjIwMjYiIGZpbGw9IiNGMUYxRjEiIHJ4PSI4MS41MTMyIiByeT0iMTguNzAyNiIgc3R5bGU9InN0cm9rZTojMTgxODE4O3N0cm9rZS13aWR0aDowLjU7Ii8+PHRleHQgZmlsbD0iIzAwMDAwMCIgZm9udC1mYW1pbHk9InNhbnMtc2VyaWYiIGZvbnQtc2l6ZT0iMTQiIGxlbmd0aEFkanVzdD0ic3BhY2luZyIgdGV4dExlbmd0aD0iMTI2IiB4PSIxNDEwLjAxMzIiIHk9IjcyNy45NDQ4Ij41LjEuMiBSZWNlaXZlIEhhc2g8L3RleHQ+PC9nPjwhLS1lbnRpdHkgdXNlci0tPjxnIGlkPSJlbGVtX3VzZXIiPjxlbGxpcHNlIGN4PSI4MDEiIGN5PSIxNCIgZmlsbD0iI0YxRjFGMSIgcng9IjgiIHJ5PSI4IiBzdHlsZT0ic3Ryb2tlOiMxODE4MTg7c3Ryb2tlLXdpZHRoOjAuNTsiLz48cGF0aCBkPSJNODAxLDIyIEw4MDEsNDkgTTc4OCwzMCBMODE0LDMwIE04MDEsNDkgTDc4OCw2NCBNODAxLDQ5IEw4MTQsNjQgIiBmaWxsPSJub25lIiBzdHlsZT0ic3Ryb2tlOiMxODE4MTg7c3Ryb2tlLXdpZHRoOjAuNTsiLz48dGV4dCBmaWxsPSIjMDAwMDAwIiBmb250LWZhbWlseT0ic2Fucy1zZXJpZiIgZm9udC1zaXplPSIxNCIgbGVuZ3RoQWRqdXN0PSJzcGFjaW5nIiB0ZXh0TGVuZ3RoPSIyOCIgeD0iNzg3IiB5PSI3OC43MzQ0Ij5Vc2VyPC90ZXh0PjwvZz48IS0tbGluayB1c2VyIHRvIGVudGVyX2RhdGEtLT48ZyBpZD0ibGlua191c2VyX2VudGVyX2RhdGEiPjxwYXRoIGQ9Ik03ODYuNzIsNTUuMTIgQzc1My40MSw4MS4wNyA2NzUuMTgyOSwxNDIuMDAyMiA2MzYuMzcyOSwxNzIuMjQyMiAiIGZpbGw9Im5vbmUiIGlkPSJ1c2VyLXRvLWVudGVyX2RhdGEiIHN0eWxlPSJzdHJva2U6IzE4MTgxODtzdHJva2Utd2lkdGg6MS4wOyIvPjxwb2x5Z29uIGZpbGw9IiMxODE4MTgiIHBvaW50cz0iNjMxLjY0LDE3NS45Myw2NDEuMTk3OSwxNzMuNTUzNiw2MzUuNTg0MSwxNzIuODU2OSw2MzYuMjgwOCwxNjcuMjQzMSw2MzEuNjQsMTc1LjkzIiBzdHlsZT0ic3Ryb2tlOiMxODE4MTg7c3Ryb2tlLXdpZHRoOjEuMDsiLz48dGV4dCBmaWxsPSIjMDAwMDAwIiBmb250LWZhbWlseT0ic2Fucy1zZXJpZiIgZm9udC1zaXplPSIxMyIgbGVuZ3RoQWRqdXN0PSJzcGFjaW5nIiB0ZXh0TGVuZ3RoPSI2OCIgeD0iNzEyIiB5PSIxMjMuNzg5MSI+RW50ZXIgRGF0YTwvdGV4dD48L2c+PCEtLWxpbmsgdXNlciB0byBzdWJtaXRfZGF0YS0tPjxnIGlkPSJsaW5rX3VzZXJfc3VibWl0X2RhdGEiPjxwYXRoIGQ9Ik04MDEsODAuNTggQzgwMSwxMTAuNzIgODAxLDE0Ni4wOCA4MDEsMTY4Ljk5ICIgZmlsbD0ibm9uZSIgaWQ9InVzZXItdG8tc3VibWl0X2RhdGEiIHN0eWxlPSJzdHJva2U6IzE4MTgxODtzdHJva2Utd2lkdGg6MS4wOyIvPjxwb2x5Z29uIGZpbGw9IiMxODE4MTgiIHBvaW50cz0iODAxLDE3NC45OSw4MDUsMTY1Ljk5LDgwMSwxNjkuOTksNzk3LDE2NS45OSw4MDEsMTc0Ljk5IiBzdHlsZT0ic3Ryb2tlOiMxODE4MTg7c3Ryb2tlLXdpZHRoOjEuMDsiLz48dGV4dCBmaWxsPSIjMDAwMDAwIiBmb250LWZhbWlseT0ic2Fucy1zZXJpZiIgZm9udC1zaXplPSIxMyIgbGVuZ3RoQWRqdXN0PSJzcGFjaW5nIiB0ZXh0TGVuZ3RoPSI3MyIgeD0iODAyIiB5PSIxMjMuNzg5MSI+U3VibWl0IERhdGE8L3RleHQ+PC9nPjwhLS1saW5rIHVzZXIgdG8gcmVxdWVzdF9kYXRhLS0+PGcgaWQ9ImxpbmtfdXNlcl9yZXF1ZXN0X2RhdGEiPjxwYXRoIGQ9Ik04MTUuMSw1NC42NCBDODQ4LjcxLDgwLjAzIDkyOS4wNDE3LDE0MC42ODQ0IDk2OS43OTE3LDE3MS40NTQ0ICIgZmlsbD0ibm9uZSIgaWQ9InVzZXItdG8tcmVxdWVzdF9kYXRhIiBzdHlsZT0ic3Ryb2tlOiMxODE4MTg7c3Ryb2tlLXdpZHRoOjEuMDsiLz48cG9seWdvbiBmaWxsPSIjMTgxODE4IiBwb2ludHM9Ijk3NC41OCwxNzUuMDcsOTY5LjgwOCwxNjYuNDU0NCw5NzAuNTg5OCwxNzIuMDU3LDk2NC45ODcyLDE3Mi44Mzg4LDk3NC41OCwxNzUuMDciIHN0eWxlPSJzdHJva2U6IzE4MTgxODtzdHJva2Utd2lkdGg6MS4wOyIvPjx0ZXh0IGZpbGw9IiMwMDAwMDAiIGZvbnQtZmFtaWx5PSJzYW5zLXNlcmlmIiBmb250LXNpemU9IjEzIiBsZW5ndGhBZGp1c3Q9InNwYWNpbmciIHRleHRMZW5ndGg9IjgyIiB4PSI5MDUiIHk9IjEyMy43ODkxIj5SZXF1ZXN0IERhdGE8L3RleHQ+PC9nPjwhLS1saW5rIHN1Ym1pdF9kYXRhIHRvIHZhbGlkYXRlX2RhdGEtLT48ZyBpZD0ibGlua19zdWJtaXRfZGF0YV92YWxpZGF0ZV9kYXRhIj48cGF0aCBkPSJNNzk3Ljg4LDIxMS4yNiBDNzkzLjE3LDIzNy4zNyA3ODUuMzM1NCwyODAuNzk1NCA3ODAuNDY1NCwzMDcuNzg1NCAiIGZpbGw9Im5vbmUiIGlkPSJzdWJtaXRfZGF0YS10by12YWxpZGF0ZV9kYXRhIiBzdHlsZT0ic3Ryb2tlOiMxODE4MTg7c3Ryb2tlLXdpZHRoOjEuMDsiLz48cG9seWdvbiBmaWxsPSIjMTgxODE4IiBwb2ludHM9Ijc3OS40LDMxMy42OSw3ODQuOTM0NiwzMDUuNTQzMyw3ODAuMjg3OCwzMDguNzY5NSw3NzcuMDYxNywzMDQuMTIyNyw3NzkuNCwzMTMuNjkiIHN0eWxlPSJzdHJva2U6IzE4MTgxODtzdHJva2Utd2lkdGg6MS4wOyIvPjx0ZXh0IGZpbGw9IiMwMDAwMDAiIGZvbnQtZmFtaWx5PSJzYW5zLXNlcmlmIiBmb250LXNpemU9IjEzIiBsZW5ndGhBZGp1c3Q9InNwYWNpbmciIHRleHRMZW5ndGg9IjEyNyIgeD0iNzkyIiB5PSIyNTYuNzg5MSI+VmFsaWRhdGUgSW5wdXQgRGF0YTwvdGV4dD48L2c+PCEtLWxpbmsgdmFsaWRhdGVfZGF0YSB0byBnZW5lcmF0ZV9oYXNoLS0+PGcgaWQ9ImxpbmtfdmFsaWRhdGVfZGF0YV9nZW5lcmF0ZV9oYXNoIj48cGF0aCBkPSJNNzc3LjgsMzUzLjIxIEM3NzkuOTcsMzc1LjgzIDc4My4wMzU1LDQwNy44Mjc2IDc4NS4zMzU1LDQzMS43Mzc2ICIgZmlsbD0ibm9uZSIgaWQ9InZhbGlkYXRlX2RhdGEtdG8tZ2VuZXJhdGVfaGFzaCIgc3R5bGU9InN0cm9rZTojMTgxODE4O3N0cm9rZS13aWR0aDoxLjA7Ii8+PHBvbHlnb24gZmlsbD0iIzE4MTgxOCIgcG9pbnRzPSI3ODUuOTEsNDM3LjcxLDc4OS4wMjk5LDQyOC4zNjgzLDc4NS40MzEyLDQzMi43MzMsNzgxLjA2NjYsNDI5LjEzNDQsNzg1LjkxLDQzNy43MSIgc3R5bGU9InN0cm9rZTojMTgxODE4O3N0cm9rZS13aWR0aDoxLjA7Ii8+PHRleHQgZmlsbD0iIzAwMDAwMCIgZm9udC1mYW1pbHk9InNhbnMtc2VyaWYiIGZvbnQtc2l6ZT0iMTMiIGxlbmd0aEFkanVzdD0ic3BhY2luZyIgdGV4dExlbmd0aD0iMTUxIiB4PSI3ODMiIHk9IjQwMi43ODkxIj5HZW5lcmF0ZSBIYXNoIGZvciBEYXRhPC90ZXh0PjwvZz48IS0tbGluayBnZW5lcmF0ZV9oYXNoIHRvIHVwbG9hZF9pcGZzLS0+PGcgaWQ9ImxpbmtfZ2VuZXJhdGVfaGFzaF91cGxvYWRfaXBmcyI+PHBhdGggZD0iTTcxNy4zMSw0NzYuNTkgQzY0My45Niw0OTIuMzEgNTM5LjY1LDUxNC44OSA1MzgsNTE2LjUgQzUyNS43MSw1MjguNDcgNTIyLjE5MjUsNTQxLjg0NDIgNTIxLjE1MjUsNTU2LjkzNDIgIiBmaWxsPSJub25lIiBpZD0iZ2VuZXJhdGVfaGFzaC10by11cGxvYWRfaXBmcyIgc3R5bGU9InN0cm9rZTojMTgxODE4O3N0cm9rZS13aWR0aDoxLjA7Ii8+PHBvbHlnb24gZmlsbD0iIzE4MTgxOCIgcG9pbnRzPSI1MjAuNzQsNTYyLjkyLDUyNS4zNDkzLDU1NC4yMTYzLDUyMS4wODM4LDU1Ny45MzE4LDUxNy4zNjgzLDU1My42NjYzLDUyMC43NCw1NjIuOTIiIHN0eWxlPSJzdHJva2U6IzE4MTgxODtzdHJva2Utd2lkdGg6MS4wOyIvPjx0ZXh0IGZpbGw9IiMwMDAwMDAiIGZvbnQtZmFtaWx5PSJzYW5zLXNlcmlmIiBmb250LXNpemU9IjEzIiBsZW5ndGhBZGp1c3Q9InNwYWNpbmciIHRleHRMZW5ndGg9IjEyOSIgeD0iNTM5IiB5PSI1MjkuNzg5MSI+VXBsb2FkIERhdGEgdG8gSVBGUzwvdGV4dD48L2c+PCEtLWxpbmsgdXBsb2FkX2lwZnMgdG8gc3RvcmVfZGF0YS0tPjxnIGlkPSJsaW5rX3VwbG9hZF9pcGZzX3N0b3JlX2RhdGEiPjxwYXRoIGQ9Ik00ODUuMTYsNjA3LjY2IEM0MzcuNTgsNjM1LjA4IDM1OS44MDg0LDY3OS44ODM5IDMxNy4xNzg0LDcwNC40NTM5ICIgZmlsbD0ibm9uZSIgaWQ9InVwbG9hZF9pcGZzLXRvLXN0b3JlX2RhdGEiIHN0eWxlPSJzdHJva2U6IzE4MTgxODtzdHJva2Utd2lkdGg6MS4wOyIvPjxwb2x5Z29uIGZpbGw9IiMxODE4MTgiIHBvaW50cz0iMzExLjk4LDcwNy40NSwzMjEuNzc1LDcwNi40MjE0LDMxNi4zMTIsNzA0Ljk1MzIsMzE3Ljc4MDIsNjk5LjQ5MDIsMzExLjk4LDcwNy40NSIgc3R5bGU9InN0cm9rZTojMTgxODE4O3N0cm9rZS13aWR0aDoxLjA7Ii8+PHRleHQgZmlsbD0iIzAwMDAwMCIgZm9udC1mYW1pbHk9InNhbnMtc2VyaWYiIGZvbnQtc2l6ZT0iMTMiIGxlbmd0aEFkanVzdD0ic3BhY2luZyIgdGV4dExlbmd0aD0iMTIyIiB4PSI0MjUiIHk9IjY1My43ODkxIj5TdG9yZSBEYXRhIGluIElQRlM8L3RleHQ+PC9nPjwhLS1saW5rIGdlbmVyYXRlX2hhc2ggdG8gc2VuZF9oYXNoLS0+PGcgaWQ9ImxpbmtfZ2VuZXJhdGVfaGFzaF9zZW5kX2hhc2giPjxwYXRoIGQ9Ik04MjYuMDIsNDgxLjQ4IEM4NjguODksNTA0LjAxIDkzMy4wMDg5LDUzNy43MDg1IDk3Ni45NTg5LDU2MC44MDg1ICIgZmlsbD0ibm9uZSIgaWQ9ImdlbmVyYXRlX2hhc2gtdG8tc2VuZF9oYXNoIiBzdHlsZT0ic3Ryb2tlOiMxODE4MTg7c3Ryb2tlLXdpZHRoOjEuMDsiLz48cG9seWdvbiBmaWxsPSIjMTgxODE4IiBwb2ludHM9Ijk4Mi4yNyw1NjMuNiw5NzYuMTY0NCw1NTUuODcyLDk3Ny44NDQxLDU2MS4yNzM4LDk3Mi40NDI0LDU2Mi45NTM1LDk4Mi4yNyw1NjMuNiIgc3R5bGU9InN0cm9rZTojMTgxODE4O3N0cm9rZS13aWR0aDoxLjA7Ii8+PHRleHQgZmlsbD0iIzAwMDAwMCIgZm9udC1mYW1pbHk9InNhbnMtc2VyaWYiIGZvbnQtc2l6ZT0iMTMiIGxlbmd0aEFkanVzdD0ic3BhY2luZyIgdGV4dExlbmd0aD0iMjE5IiB4PSI5MjAiIHk9IjUyOS43ODkxIj5TZW5kIEhhc2ggdG8gUmVjZWl2ZXIgdmlhIGxpYnAycDwvdGV4dD48L2c+PCEtLWxpbmsgc2VuZF9oYXNoIHRvIHRyYW5zbWl0X2hhc2gtLT48ZyBpZD0ibGlua19zZW5kX2hhc2hfdHJhbnNtaXRfaGFzaCI+PHBhdGggZD0iTTEwNjIuMDIsNjA4LjQgQzExMTEuMTMsNjM1LjMzIDExODkuMjI4OCw2NzguMTY1NiAxMjM0LjQwODgsNzAyLjkzNTYgIiBmaWxsPSJub25lIiBpZD0ic2VuZF9oYXNoLXRvLXRyYW5zbWl0X2hhc2giIHN0eWxlPSJzdHJva2U6IzE4MTgxODtzdHJva2Utd2lkdGg6MS4wOyIvPjxwb2x5Z29uIGZpbGw9IiMxODE4MTgiIHBvaW50cz0iMTIzOS42Nyw3MDUuODIsMTIzMy43MDEyLDY5Ny45ODU5LDEyMzUuMjg1Nyw3MDMuNDE2MywxMjI5Ljg1NTMsNzA1LjAwMDgsMTIzOS42Nyw3MDUuODIiIHN0eWxlPSJzdHJva2U6IzE4MTgxODtzdHJva2Utd2lkdGg6MS4wOyIvPjx0ZXh0IGZpbGw9IiMwMDAwMDAiIGZvbnQtZmFtaWx5PSJzYW5zLXNlcmlmIiBmb250LXNpemU9IjEzIiBsZW5ndGhBZGp1c3Q9InNwYWNpbmciIHRleHRMZW5ndGg9IjIxNiIgeD0iMTE0OCIgeT0iNjUzLjc4OTEiPlRyYW5zbWl0IEhhc2ggdG8gUGVlciB2aWEgbGlicDJwPC90ZXh0PjwvZz48IS0tbGluayByZXF1ZXN0X2RhdGEgdG8gcmVjZWl2ZV9oYXNoLS0+PGcgaWQ9ImxpbmtfcmVxdWVzdF9kYXRhX3JlY2VpdmVfaGFzaCI+PHBhdGggZD0iTTk5OS4wMywyMTEuNTQgQzEwMDEuODIsMjM1LjcxIDEwMDYuMTcwMSwyNzMuNDI5OCAxMDA5LjM4MDEsMzAxLjE1OTggIiBmaWxsPSJub25lIiBpZD0icmVxdWVzdF9kYXRhLXRvLXJlY2VpdmVfaGFzaCIgc3R5bGU9InN0cm9rZTojMTgxODE4O3N0cm9rZS13aWR0aDoxLjA7Ii8+PHBvbHlnb24gZmlsbD0iIzE4MTgxOCIgcG9pbnRzPSIxMDEwLjA3LDMwNy4xMiwxMDEzLjAwODUsMjk3LjcxOTcsMTAwOS40OTUsMzAyLjE1MzIsMTAwNS4wNjE2LDI5OC42Mzk3LDEwMTAuMDcsMzA3LjEyIiBzdHlsZT0ic3Ryb2tlOiMxODE4MTg7c3Ryb2tlLXdpZHRoOjEuMDsiLz48dGV4dCBmaWxsPSIjMDAwMDAwIiBmb250LWZhbWlseT0ic2Fucy1zZXJpZiIgZm9udC1zaXplPSIxMyIgbGVuZ3RoQWRqdXN0PSJzcGFjaW5nIiB0ZXh0TGVuZ3RoPSIxNjMiIHg9IjEwMDUiIHk9IjI1Ni43ODkxIj5SZWNlaXZlIEhhc2ggZnJvbSBsaWJwMnA8L3RleHQ+PC9nPjwhLS1saW5rIHJlY2VpdmVfaGFzaCB0byByZWNlaXZlX2hhc2hfbGlicDJwLS0+PGcgaWQ9ImxpbmtfcmVjZWl2ZV9oYXNoX3JlY2VpdmVfaGFzaF9saWJwMnAiPjxwYXRoIGQ9Ik0xMDU4LjI1LDM1Ny43MiBDMTA3NC43MywzNjYuODYgMTA5My4xOCwzNzcuOTQgMTEwOSwzODkuNSBDMTI1NS4wMiw0OTYuMTkgMTQwMy40OTAyLDY0OS4yMDc5IDE0NTIuNjMwMiw3MDEuMjM3OSAiIGZpbGw9Im5vbmUiIGlkPSJyZWNlaXZlX2hhc2gtdG8tcmVjZWl2ZV9oYXNoX2xpYnAycCIgc3R5bGU9InN0cm9rZTojMTgxODE4O3N0cm9rZS13aWR0aDoxLjA7Ii8+PHBvbHlnb24gZmlsbD0iIzE4MTgxOCIgcG9pbnRzPSIxNDU2Ljc1LDcwNS42LDE0NTMuNDc4NCw2OTYuMzEwNCwxNDUzLjMxNjksNzAxLjk2NSwxNDQ3LjY2MjMsNzAxLjgwMzQsMTQ1Ni43NSw3MDUuNiIgc3R5bGU9InN0cm9rZTojMTgxODE4O3N0cm9rZS13aWR0aDoxLjA7Ii8+PHRleHQgZmlsbD0iIzAwMDAwMCIgZm9udC1mYW1pbHk9InNhbnMtc2VyaWYiIGZvbnQtc2l6ZT0iMTMiIGxlbmd0aEFkanVzdD0ic3BhY2luZyIgdGV4dExlbmd0aD0iMTUxIiB4PSIxMjc4IiB5PSI1MjkuNzg5MSI+UmVjZWl2ZSBIYXNoIGZyb20gUGVlcjwvdGV4dD48L2c+PCEtLWxpbmsgcmVjZWl2ZV9oYXNoIHRvIHJldHJpZXZlX2lwZnMtLT48ZyBpZD0ibGlua19yZWNlaXZlX2hhc2hfcmV0cmlldmVfaXBmcyI+PHBhdGggZD0iTTk5NS4xMiwzNTkuMjEgQzk4Mi4yNCwzNzQuOTggOTYzLjQxLDM5NC4zMSA5NDIsNDA0LjUgQzgzMi4xNyw0NTYuNzUgNzkwLjMyLDQxNi43NSA2NzAsNDM0LjUgQzY1NC4wOCw0MzYuODUgNjQzLjA3NTYsNDM4LjY0MDEgNjI2LjgwNTYsNDQxLjU2MDEgIiBmaWxsPSJub25lIiBpZD0icmVjZWl2ZV9oYXNoLXRvLXJldHJpZXZlX2lwZnMiIHN0eWxlPSJzdHJva2U6IzE4MTgxODtzdHJva2Utd2lkdGg6MS4wOyIvPjxwb2x5Z29uIGZpbGw9IiMxODE4MTgiIHBvaW50cz0iNjIwLjksNDQyLjYyLDYzMC40NjUxLDQ0NC45NjczLDYyNS44MjE0LDQ0MS43MzY4LDYyOS4wNTE5LDQzNy4wOTMxLDYyMC45LDQ0Mi42MiIgc3R5bGU9InN0cm9rZTojMTgxODE4O3N0cm9rZS13aWR0aDoxLjA7Ii8+PHRleHQgZmlsbD0iIzAwMDAwMCIgZm9udC1mYW1pbHk9InNhbnMtc2VyaWYiIGZvbnQtc2l6ZT0iMTMiIGxlbmd0aEFkanVzdD0ic3BhY2luZyIgdGV4dExlbmd0aD0iMTM1IiB4PSI5NjUiIHk9IjQwMi43ODkxIj5GZXRjaCBEYXRhIGZyb20gSVBGUzwvdGV4dD48L2c+PCEtLWxpbmsgcmV0cmlldmVfaXBmcyB0byBmZXRjaF9kYXRhLS0+PGcgaWQ9ImxpbmtfcmV0cmlldmVfaXBmc19mZXRjaF9kYXRhIj48cGF0aCBkPSJNNDYzLjg2LDQ4MS4zIEM0MTAuMTMsNDk4LjA1IDMzNS44NSw1MjUuMTUgMjc3LDU2MS41IEMyMDguMTMsNjA0LjA0IDE0NS40MDU3LDY3MC4zNjUyIDExNy4xMzU3LDcwMi4xNzUyICIgZmlsbD0ibm9uZSIgaWQ9InJldHJpZXZlX2lwZnMtdG8tZmV0Y2hfZGF0YSIgc3R5bGU9InN0cm9rZTojMTgxODE4O3N0cm9rZS13aWR0aDoxLjA7Ii8+PHBvbHlnb24gZmlsbD0iIzE4MTgxOCIgcG9pbnRzPSIxMTMuMTUsNzA2LjY2LDEyMi4xMTg1LDcwMi41ODk5LDExNi40NzE1LDcwMi45MjI2LDExNi4xMzg3LDY5Ny4yNzU2LDExMy4xNSw3MDYuNjYiIHN0eWxlPSJzdHJva2U6IzE4MTgxODtzdHJva2Utd2lkdGg6MS4wOyIvPjx0ZXh0IGZpbGw9IiMwMDAwMDAiIGZvbnQtZmFtaWx5PSJzYW5zLXNlcmlmIiBmb250LXNpemU9IjEzIiBsZW5ndGhBZGp1c3Q9InNwYWNpbmciIHRleHRMZW5ndGg9IjEyMSIgeD0iMjc4IiB5PSI1OTEuNzg5MSI+R2V0IERhdGEgZnJvbSBJUEZTPC90ZXh0PjwvZz48IS0tbGluayBnZW5lcmF0ZV9oYXNoIHRvIGNoZWNrX3N0YXR1cy0tPjxnIGlkPSJsaW5rX2dlbmVyYXRlX2hhc2hfY2hlY2tfc3RhdHVzIj48cGF0aCBkPSJNNzI3Ljk0LDQ3OC42NSBDNzA5LjY2LDQ4NyA2OTEuNjEsNDk5LjEyIDY4MSw1MTYuNSBDNjY4LjYxLDUzNi44IDY4Mi44NTA3LDU1MC42NzI3IDcwNi44MDA3LDU2Mi4zOTI3ICIgZmlsbD0ibm9uZSIgaWQ9ImdlbmVyYXRlX2hhc2gtdG8tY2hlY2tfc3RhdHVzIiBzdHlsZT0ic3Ryb2tlOiMxODE4MTg7c3Ryb2tlLXdpZHRoOjEuMDsiLz48cG9seWdvbiBmaWxsPSIjMTgxODE4IiBwb2ludHM9IjcxMi4xOSw1NjUuMDMsNzA1Ljg2NDIsNTU3LjQ4MTIsNzA3LjY5ODksNTYyLjgzMjMsNzAyLjM0NzgsNTY0LjY2Nyw3MTIuMTksNTY1LjAzIiBzdHlsZT0ic3Ryb2tlOiMxODE4MTg7c3Ryb2tlLXdpZHRoOjEuMDsiLz48dGV4dCBmaWxsPSIjMDAwMDAwIiBmb250LWZhbWlseT0ic2Fucy1zZXJpZiIgZm9udC1zaXplPSIxMyIgbGVuZ3RoQWRqdXN0PSJzcGFjaW5nIiB0ZXh0TGVuZ3RoPSIxODMiIHg9IjY4MiIgeT0iNTI5Ljc4OTEiPkNoZWNrIGlmIFJlY2VpdmVyIGlzIE9ubGluZTwvdGV4dD48L2c+PCEtLWxpbmsgY2hlY2tfc3RhdHVzIHRvIHN0b3JlX3F1ZXVlLS0+PGcgaWQ9ImxpbmtfY2hlY2tfc3RhdHVzX3N0b3JlX3F1ZXVlIj48cGF0aCBkPSJNNzcwLDYxMC42OSBDNzcwLDYzNi4xMSA3NzAsNjcwLjE2IDc3MCw2OTQuOTMgIiBmaWxsPSJub25lIiBpZD0iY2hlY2tfc3RhdHVzLXRvLXN0b3JlX3F1ZXVlIiBzdHlsZT0ic3Ryb2tlOiMxODE4MTg7c3Ryb2tlLXdpZHRoOjEuMDsiLz48cG9seWdvbiBmaWxsPSIjMTgxODE4IiBwb2ludHM9Ijc3MCw3MDAuOTMsNzc0LDY5MS45Myw3NzAsNjk1LjkzLDc2Niw2OTEuOTMsNzcwLDcwMC45MyIgc3R5bGU9InN0cm9rZTojMTgxODE4O3N0cm9rZS13aWR0aDoxLjA7Ii8+PHRleHQgZmlsbD0iIzAwMDAwMCIgZm9udC1mYW1pbHk9InNhbnMtc2VyaWYiIGZvbnQtc2l6ZT0iMTMiIGxlbmd0aEFkanVzdD0ic3BhY2luZyIgdGV4dExlbmd0aD0iMjU4IiB4PSI3NzEiIHk9IjY1My43ODkxIj5TdG9yZSBIYXNoIGluIE1lc3NhZ2UgUXVldWUgaWYgT2ZmbGluZTwvdGV4dD48L2c+PCEtLWxpbmsgc3RvcmVfcXVldWUgdG8gdGVtcF9zdG9yZS0tPjxnIGlkPSJsaW5rX3N0b3JlX3F1ZXVlX3RlbXBfc3RvcmUiPjxwYXRoIGQ9Ik03NzAsNzQ3LjE5IEM3NzAsNzczLjA4IDc3MCw4MDkuNzcgNzcwLDgzNi41OSAiIGZpbGw9Im5vbmUiIGlkPSJzdG9yZV9xdWV1ZS10by10ZW1wX3N0b3JlIiBzdHlsZT0ic3Ryb2tlOiMxODE4MTg7c3Ryb2tlLXdpZHRoOjEuMDsiLz48cG9seWdvbiBmaWxsPSIjMTgxODE4IiBwb2ludHM9Ijc3MCw4NDIuNTksNzc0LDgzMy41OSw3NzAsODM3LjU5LDc2Niw4MzMuNTksNzcwLDg0Mi41OSIgc3R5bGU9InN0cm9rZTojMTgxODE4O3N0cm9rZS13aWR0aDoxLjA7Ii8+PHRleHQgZmlsbD0iIzAwMDAwMCIgZm9udC1mYW1pbHk9InNhbnMtc2VyaWYiIGZvbnQtc2l6ZT0iMTMiIGxlbmd0aEFkanVzdD0ic3BhY2luZyIgdGV4dExlbmd0aD0iMTQ5IiB4PSI3NzEiIHk9Ijc5Mi4yODkxIj5UZW1wb3JhcmlseSBTdG9yZSBIYXNoPC90ZXh0PjwvZz48IS0tbGluayB0ZW1wX3N0b3JlIHRvIHJldHJpZXZlX2hhc2gtLT48ZyBpZD0ibGlua190ZW1wX3N0b3JlX3JldHJpZXZlX2hhc2giPjxwYXRoIGQ9Ik03NzEuOTMsODkzLjEgQzc3My42NCw5MTQuNTMgNzc1LjY1OTUsOTM5Ljc5OTMgNzc3LjQyOTUsOTYxLjgyOTMgIiBmaWxsPSJub25lIiBpZD0idGVtcF9zdG9yZS10by1yZXRyaWV2ZV9oYXNoIiBzdHlsZT0ic3Ryb2tlOiMxODE4MTg7c3Ryb2tlLXdpZHRoOjEuMDsiLz48cG9seWdvbiBmaWxsPSIjMTgxODE4IiBwb2ludHM9Ijc3Ny45MSw5NjcuODEsNzgxLjE3NjQsOTU4LjUxODYsNzc3LjUwOTYsOTYyLjgyNjEsNzczLjIwMjEsOTU5LjE1OTMsNzc3LjkxLDk2Ny44MSIgc3R5bGU9InN0cm9rZTojMTgxODE4O3N0cm9rZS13aWR0aDoxLjA7Ii8+PHRleHQgZmlsbD0iIzAwMDAwMCIgZm9udC1mYW1pbHk9InNhbnMtc2VyaWYiIGZvbnQtc2l6ZT0iMTMiIGxlbmd0aEFkanVzdD0ic3BhY2luZyIgdGV4dExlbmd0aD0iMjUyIiB4PSI3NzYiIHk9IjkzNi4yODkxIj5SZXRyaWV2ZSBIYXNoIHdoZW4gUmVjZWl2ZXIgaXMgT25saW5lPC90ZXh0PjwvZz48IS0tU1JDPVtSTEpCUmppbTRCcHBBdVlTc2FDQUw3NGtFVkpHWHppMFJQRjZKUXUyQlF6aW1oQWFhOUkzZWtZX1R0VWZZQUg0LXMxcEVLRUVQaE1aQWpTUC1NWjFJNk5iV0J6MjZBWVNRbFNEbzhrcndMZTd4S3ctVUcxTGtSU05YQWZWWXQtNW4wLUlBY0tIX0Z1VFZrS050M0ZvaXRBQW1LM0JTZVZCOVJZR2NzNXhxWXdXQlEtcHkwQkZWZTNkME1vNER4eFcyVnlJd0h6TFRLSUgzRGx3X3RGMTFHai1LZXI2RmVISnBzQ2Jld0RXc0wtWDFWREFhVC1LRkoxbEZ2UkIwclJjRkRCX3dHM0w0UC1ZMGRyNmFwUEVrUzRvalFBVHFkOVhvS0laaTR0MERxZFRvYnkzM0UwRGV0aHZKRWl2eEdlbFZFb1JKa3N5SkRWOXNfbHJYY2EzcnFsVHJ0UDlBcjJYQ25oRXVfRFhscS0xUWlRekI3YzVUc3g4UUxQd3JhZXNVamlObFRVQTZyYmhMZG1iY3Y4YjZoX2RrTWNOVnUyclFXLUg4b1RWT0tsYzNSX1lYbC02S3p5UFBOSnA5X0FMb0d3dElsUHFJT25pT1A0bDFzWmJOVGxlNWI5WkNaQjlGUnVCYko2T3A5a2hNeDR3aG9YQzEzVHUtSUFrTUQ0UU43Szh1OWdNa003dXBjUkFkLTFVRWREYWhGVHRoazdRRXNIS1FzYW1XcDVaOVRFX3d6NlJxQno1cXFmXzZPY1lZOTZOYm4tWU85MHRLTVc0RzlHNVk4WUk4YTNZeUtUQzcwejJuN20yOXJFRHc2ZGtSemotNjRhZlhiWjlKMkRoNmRyLTEtZmtMMnJJNzM2WjZLRFVQWDk1WkUwZGRkZkQzcG96MXBKblpDelNDaXFLQ1FSMW1ta2NhMGNwOTBBT2c0YkJhUHVxZE93dVh2R2s0aGt6X3c3N3g3eXFtdm1ROHBGMXBPZFpvdjdiYW1JSGVxU1BYQ0dtMVk2aUgwZVlNWFdGUmdJUkNwQi1uaGNDOTFfV2tXeHNRWmpjVzRZV2VQcS1ZNnZjMlB4YTVYcnVMelR5SWFwWUJhczlIMnRBOWZTRzRJWW5QLWhCOGhVTS1seTNdLS0+PC9nPjwvc3ZnPg==;" vertex="1" parent="1">
            <mxGeometry x="-450" y="-1540" width="1577" height="1044" as="geometry" />
          </mxCell>
        </UserObject>
      </root>
    </mxGraphModel>
  </diagram>
</mxfile>
